<svg id="eEU0KClBqn91" xmlns="http://www.w3.org/2000/svg" xmlns:xlink="http://www.w3.org/1999/xlink" viewBox="0 0 300 300" shape-rendering="geometricPrecision" text-rendering="geometricPrecision"><ellipse rx="150" ry="150" transform="translate(150 150)" fill="#f0ff00" stroke="#000" stroke-width="6"/><g transform="translate(.848871 0.000001)"><ellipse rx="42.015328" ry="43.39682" transform="translate(100.182997 98.128127)" fill="#fff" stroke="#020202" stroke-width="5" stroke-miterlimit="5"/><ellipse rx="42.015328" ry="43.39682" transform="matrix(.299801 0 0 0.303372 87.58676 103.491832)" stroke-width="3"/></g><g transform="translate(111.173877-.000015)"><ellipse rx="42.015328" ry="43.39682" transform="translate(100.182997 98.128127)" fill="#fff" stroke="#020202" stroke-width="5"/><ellipse rx="42.015328" ry="43.39682" transform="matrix(.299801 0 0 0.303372 118.721332 84.962763)" stroke-width="3"/></g><path d="M63.99679,192.812892c10.52785,63.16709,60.22429,78.742528,119.93284,64.963628c24.2554-5.5974,61.51254-45.2938,51.63775-71.62656-2.6047-6.94586-28.63283-3.01023-34.98041-4.16433-38.837-7.06127-83.35625-1.66573-123.26431-1.66573-1.25696,0-12.51246-.9761-13.32587,0-2.43372,2.92047-1.68925,14.404987,0,16.657327" transform="translate(0 0.000001)" fill="#fff" stroke="#000" stroke-width="6"/></svg>
