<?xml version="1.0" encoding="UTF-8" standalone="no"?>
<!-- Created with Inkscape (http://www.inkscape.org/) -->

<svg
   width="130mm"
   height="54mm"
   viewBox="0 0 130 54"
   version="1.1"
   id="svg1"
   inkscape:version="1.3.2 (091e20e, 2023-11-25, custom)"
   sodipodi:docname="small.svg"
   xmlns:inkscape="http://www.inkscape.org/namespaces/inkscape"
   xmlns:sodipodi="http://sodipodi.sourceforge.net/DTD/sodipodi-0.dtd"
   xmlns="http://www.w3.org/2000/svg"
   xmlns:svg="http://www.w3.org/2000/svg">
  <sodipodi:namedview
     id="namedview1"
     pagecolor="#ffffff"
     bordercolor="#000000"
     borderopacity="0.25"
     inkscape:showpageshadow="2"
     inkscape:pageopacity="0.0"
     inkscape:pagecheckerboard="0"
     inkscape:deskcolor="#d1d1d1"
     inkscape:document-units="mm"
     inkscape:zoom="1.3166807"
     inkscape:cx="285.18683"
     inkscape:cy="240.37719"
     inkscape:window-width="1920"
     inkscape:window-height="974"
     inkscape:window-x="-11"
     inkscape:window-y="-11"
     inkscape:window-maximized="1"
     inkscape:current-layer="layer1"
     showgrid="false" />
  <defs
     id="defs1" />
  <g
     inkscape:label="Layer 1"
     inkscape:groupmode="layer"
     id="layer1"
     transform="translate(-0.76579785,-1.2837021)">
    <path
       style="fill:none;stroke:#000000;stroke-width:1.879"
       d="m 13.827367,35.243782 c 0,-0.803788 -0.170748,-1.625923 0,-2.411365 0.171931,-0.790879 0.720554,-1.452602 1.004736,-2.210421 0.319895,-0.853052 0.46543,-1.766417 0.803789,-2.612314 0.333756,-0.834387 0.820978,-1.59921 1.205684,-2.411366 0.218376,-0.461017 0.344199,-0.966938 0.602841,-1.40663 0.414552,-0.704739 0.980281,-1.311809 1.406631,-2.009473 0.312405,-0.511208 0.479816,-1.10362 0.803789,-1.607578 1.468899,-2.284954 4.923641,-5.131486 7.435047,-6.028416 1.583237,-0.565442 2.431918,-0.803789 4.018944,-0.803789 0.334912,0 0.696905,-0.131928 1.004737,0 0.22198,0.09513 0.197096,0.474842 0.401894,0.602842 0.35924,0.224525 0.826772,0.212439 1.205682,0.401894 0.997117,0.498558 1.899976,1.169224 2.813262,1.808525 1.523817,1.066671 2.176563,3.487997 3.01421,5.023681 0.160372,0.294018 0.478456,0.49283 0.60284,0.803789 0.15132,0.378296 0.06171,0.822775 0.200948,1.205683 0.133474,0.367056 0.479333,0.634208 0.602843,1.004736 0.149775,0.449332 0.09444,0.945123 0.200945,1.406631 0.09526,0.412785 0.326113,0.788882 0.401895,1.205683 0.239942,1.319686 0.06748,2.68428 0.200948,4.018944 0.122415,1.224161 0.200946,2.379162 0.200946,3.61705"
       id="path3" />
    <path
       style="fill:none;stroke:#000000;stroke-width:1.879"
       d="m 81.144687,35.243782 c -0.150741,-1.867141 0.137816,-3.577032 0.401894,-5.425575 0.114067,-0.798467 0.01958,-1.625446 0.200948,-2.411366 0.142886,-0.619178 0.420246,-1.199873 0.60284,-1.808525 0.158282,-0.527605 0.870347,-3.396176 1.205685,-4.018944 0.04757,-0.08834 1.253736,-1.223157 1.406631,-1.406631 1.195009,-1.434011 -0.842137,0.440241 1.406631,-1.808525 3.28722,-3.287222 5.473298,-3.61705 9.846413,-3.61705 0.87077,0 1.772224,-0.229115 2.612313,0 1.188988,0.32427 2.151268,1.470757 3.014208,2.210419 0.50857,0.435916 1.13394,0.732047 1.60758,1.205684 0.90067,0.900671 1.49611,2.183377 2.21042,3.215155 0.24413,0.352636 0.60045,0.627105 0.80379,1.004737 1.32084,2.452992 1.72339,7.397467 1.40663,10.248308 -0.009,0.08154 -0.31707,1.638871 -0.4019,1.808525 -0.4425,0.885015 -0.40189,0.09233 -0.40189,1.205682"
       id="path4" />
  </g>
</svg>
