<?xml version="1.0" encoding="UTF-8" standalone="no"?>
<!-- Created with Inkscape (http://www.inkscape.org/) -->

<svg
   width="130mm"
   height="54mm"
   viewBox="0 0 130 54"
   version="1.1"
   id="svg1"
   inkscape:version="1.3.2 (091e20e, 2023-11-25, custom)"
   sodipodi:docname="smooth_wink.svg"
   xmlns:inkscape="http://www.inkscape.org/namespaces/inkscape"
   xmlns:sodipodi="http://sodipodi.sourceforge.net/DTD/sodipodi-0.dtd"
   xmlns="http://www.w3.org/2000/svg"
   xmlns:svg="http://www.w3.org/2000/svg">
  <sodipodi:namedview
     id="namedview1"
     pagecolor="#ffffff"
     bordercolor="#000000"
     borderopacity="0.25"
     inkscape:showpageshadow="2"
     inkscape:pageopacity="0.0"
     inkscape:pagecheckerboard="0"
     inkscape:deskcolor="#d1d1d1"
     inkscape:document-units="mm"
     inkscape:zoom="1.3166807"
     inkscape:cx="285.18683"
     inkscape:cy="239.99744"
     inkscape:window-width="1920"
     inkscape:window-height="974"
     inkscape:window-x="-11"
     inkscape:window-y="-11"
     inkscape:window-maximized="1"
     inkscape:current-layer="layer1"
     showgrid="false" />
  <defs
     id="defs1" />
  <g
     inkscape:label="Layer 1"
     inkscape:groupmode="layer"
     id="layer1"
     transform="translate(-0.76579785,-1.2837021)">
    <path
       style="fill:none;fill-opacity:1;stroke:#000000;stroke-width:1.879"
       d="m 16.037787,31.626733 c 1.270711,-1.947344 3.226767,-3.443842 5.425575,-4.219892 0.659449,-0.232747 1.353273,-0.361084 2.009472,-0.602842 0.619025,-0.228062 1.178854,-0.607017 1.808525,-0.803789 0.452078,-0.141274 0.941107,-0.113661 1.406631,-0.200947 3.442615,-0.64549 6.938989,-1.004736 10.449255,-1.004736 3.223361,0 6.678451,-0.352383 9.846413,0.401894 2.663905,0.634263 4.058481,1.88252 6.430312,2.612314 0.389422,0.119822 0.821981,0.06391 1.205685,0.200947 0.649449,0.231947 1.425988,0.430933 1.808525,1.004738 0.08308,0.124621 0.08112,0.312028 0.200946,0.401894 0.338907,0.25418 0.826772,0.212439 1.205682,0.401894 0.587211,0.293603 -0.265231,0.401894 0.602843,0.401894"
       id="path10" />
    <path
       style="fill:none;fill-opacity:1;stroke:#000000;stroke-width:1.879"
       d="m 82.953212,30.019156 c 1.749377,-1.749378 0.155892,-0.404659 2.411367,-1.60758 0.557567,-0.297367 1.035812,-0.735669 1.607577,-1.004735 0.574969,-0.270573 1.231561,-0.336551 1.808525,-0.602842 1.394677,-0.643696 0.173813,-0.624568 1.607579,-0.803788 1.494787,-0.186849 2.916986,-0.28954 4.420838,-0.602842 2.539818,-0.529128 2.087346,-0.609921 4.219893,-0.803789 0.736806,-0.06698 0.937752,0.133965 1.808529,0 0.48196,-0.07415 0.92275,-0.34141 1.40663,-0.401894 1.06344,-0.132931 2.14343,0 3.21515,0 2.29584,0 4.55458,0.02575 6.83221,0.200947 0.93609,0.07201 2.15306,0.434725 3.01421,0.803789 0.22198,0.09514 0.38086,0.306759 0.60284,0.401894 0.76153,0.326373 1.61948,0.359184 2.41136,0.602842 0.97946,-0.758287 0.77941,0.46075 1.20569,0.602841 1.37948,0.459829 -0.93599,-0.769415 1.00473,0.200948 0.6128,0.3064 -0.36752,0.159303 0.60284,0.401894 0.12997,0.03249 0.29043,-0.07431 0.4019,0 0.12462,0.08308 0.095,0.295986 0.20095,0.401896 0.0931,0.09309 1.40536,0.602839 1.40663,0.602839"
       id="path11" />
  </g>
</svg>
