<?xml version="1.0" encoding="UTF-8" standalone="no"?>
<!-- Created with Inkscape (http://www.inkscape.org/) -->

<svg
   width="130mm"
   height="54mm"
   viewBox="0 0 130 54"
   version="1.1"
   id="svg1"
   inkscape:version="1.3.2 (091e20e, 2023-11-25, custom)"
   sodipodi:docname="suspicious2.svg"
   xmlns:inkscape="http://www.inkscape.org/namespaces/inkscape"
   xmlns:sodipodi="http://sodipodi.sourceforge.net/DTD/sodipodi-0.dtd"
   xmlns="http://www.w3.org/2000/svg"
   xmlns:svg="http://www.w3.org/2000/svg">
  <sodipodi:namedview
     id="namedview1"
     pagecolor="#ffffff"
     bordercolor="#000000"
     borderopacity="0.25"
     inkscape:showpageshadow="2"
     inkscape:pageopacity="0.0"
     inkscape:pagecheckerboard="0"
     inkscape:deskcolor="#d1d1d1"
     inkscape:document-units="mm"
     inkscape:zoom="1.3166807"
     inkscape:cx="311.00934"
     inkscape:cy="88.48007"
     inkscape:window-width="1920"
     inkscape:window-height="974"
     inkscape:window-x="-11"
     inkscape:window-y="-11"
     inkscape:window-maximized="1"
     inkscape:current-layer="layer1"
     showgrid="false" />
  <defs
     id="defs1" />
  <g
     inkscape:label="Layer 1"
     inkscape:groupmode="layer"
     id="layer1"
     transform="translate(-0.76579785,-1.2837021)">
    <path
       style="fill:#fefefe;stroke:#000000;stroke-width:1.879;fill-opacity:1"
       d="m 30.214188,14.00086 c -2.118002,-1.560063 -4.05581,-1.073574 -6.145442,-0.213137 -3.454192,1.422315 -6.785415,4.252981 -9.093834,7.104557 -0.533099,0.658535 -0.774025,1.50775 -1.136729,2.273458 -1.629789,3.440666 -1.989276,5.293461 -1.989276,9.093833 0,3.996944 0.03626,5.920612 1.136729,9.662199 0.08598,0.29232 0.912342,3.309705 1.136729,3.694369 0.372787,0.639062 0.913848,1.166339 1.420912,1.705094 4.178216,4.439354 4.898392,4.546918 10.514745,4.546918 1.894549,0 3.801584,0.217159 5.683644,0 1.255493,-0.144865 2.462914,-0.568365 3.694372,-0.852549 1.927101,-0.444717 4.515152,-0.795186 6.252009,-1.989275 3.124107,-2.147824 2.67308,-5.488191 3.126004,-8.809651 0.143098,-1.049374 0.462984,-2.072177 0.568365,-3.126004 0.187137,-1.871369 0.287605,-5.235133 0,-7.104558 -0.0911,-0.592142 -0.433649,-1.121327 -0.568365,-1.705094 -0.150614,-0.652671 -0.100166,-1.345225 -0.284181,-1.989276 -0.761735,-2.666074 -2.354535,-4.891908 -4.546917,-6.536193 -0.651899,-0.488926 -1.226283,-1.134789 -1.989275,-1.420912 -0.354785,-0.133044 -0.759701,0.0377 -1.13673,0 -0.573344,-0.05733 -1.142611,-0.159186 -1.705094,-0.284182 -0.877263,-0.194947 -1.685808,-0.634589 -2.557639,-0.852547 -0.183798,-0.04595 -0.388634,0.05991 -0.568365,0 -0.12709,-0.04236 -0.157094,-0.241819 -0.284184,-0.284182 -0.179731,-0.05991 -0.398909,0.08473 -0.568364,0 -0.75782,-0.37891 -0.248658,-3.232573 -1.385387,-3.232573"
       id="path13"
       sodipodi:nodetypes="cssssssssssssssssssssssscc" />
    <path
       style="fill:none;stroke:#000000;stroke-width:1.879"
       d="m 14.406548,7.2515302 c 5.071293,-3.1207958 2.840845,-2.5034642 9.94638,-2.8418229 1.372231,-0.065344 5.439164,-0.5784452 7.388738,0.5683644 2.787679,1.6398116 5.5118,4.1123677 7.957106,6.2520103 2.475399,2.165974 4.957929,4.745544 8.241286,5.683646 0.837613,0.239318 5.260441,0.614705 6.252009,0.284182 3.949724,-1.316574 7.605763,-3.911393 10.514745,-6.820375"
       id="path14" />
    <path
       style="fill:#ffffff;fill-opacity:1;stroke:#000000;stroke-width:1.72575"
       d="m 90.009591,22.220518 c -2.525182,4.496108 -7.652506,7.234356 -8.874173,12.528242 -0.310865,1.347088 -0.770481,5.449167 -0.461951,6.786129 0.114072,0.494312 0.540093,0.859668 0.783014,1.305027 1.158933,2.124708 2.04459,4.163707 3.654072,6.003115 0.181398,0.20731 1.37445,1.829421 1.827034,2.088038 0.311454,0.177975 0.723174,0.100582 1.04402,0.261007 0.389084,0.194542 0.646504,0.606342 1.044021,0.783014 0.405387,0.180173 0.877034,0.144281 1.305024,0.261006 0.541278,0.147621 1.922124,0.706579 2.61005,0.783014 0.432349,0.04804 0.870017,0 1.305027,0 0.957017,0.087 1.920722,0.118455 2.871055,0.261007 0.793242,0.118984 1.553124,0.422519 2.349049,0.522009 1.122277,0.140287 2.262037,0 3.393057,0 h 4.95909 c 0.95703,0 1.94262,0.232112 2.87106,0 0.23873,-0.05968 0.30191,-0.41196 0.52201,-0.522009 0.15564,-0.07782 0.35693,0.05502 0.52201,0 0.88895,-0.296318 1.74878,-0.674904 2.61005,-1.044021 1.48881,-0.638057 3.0871,-1.449052 4.43709,-2.349044 0.96315,-0.642103 1.60554,-1.760328 2.34904,-2.610051 0.80993,-0.925629 1.8371,-1.980168 2.34905,-3.132061 0.18017,-0.405388 0.12072,-0.884167 0.261,-1.305024 0.44529,-1.33585 1.04365,-2.477526 1.30502,-3.915078 0.20684,-1.137557 0.16706,-4.31174 0,-5.481104 -0.21204,-1.484287 -2.00173,-6.004168 -2.87105,-7.308141 -0.1365,-0.204749 -0.41195,-0.301911 -0.52201,-0.52201 -0.16042,-0.320846 -0.10058,-0.723174 -0.261,-1.044021 -0.5297,-1.059395 -1.65624,-2.416701 -2.61005,-3.132059 -0.70426,-0.528194 -3.79358,-2.821421 -4.67089,-3.347832 -0.21101,-0.126605 -4.55601,-0.721943 -5.04333,-0.572245 -0.49674,0.152595 -4.67542,2.803831 -5.14813,3.019684 -0.61333,0.280058 -4.435059,1.498993 -5.298142,1.573649 -0.525025,0.04541 -3.809364,0.523015 -4.350024,0.414884 C 93.170244,22.305755 92.73966,22.01967 91.5961,22.01967"
       id="path17"
       sodipodi:nodetypes="cssssssssscsssssscssssssssssssssssc" />
    <path
       style="fill:none;stroke:#000000;stroke-width:1.879"
       d="m 36.288584,36.238123 c -0.473636,0.284184 -1.13673,0.37891 -1.420911,0.852549 -0.310975,0.518289 -0.284183,1.788554 -0.284183,2.557639 0,0.162087 -0.05013,1.103308 0,1.13673 0.236455,0.157636 0.573884,-0.05573 0.852548,0 1.081688,0.216336 3.140729,0.972553 3.410185,0.568364 0.496306,-0.744455 1.044591,-2.296763 1.13673,-3.126007 0.03291,-0.296193 0.12682,-1.862455 0,-1.989275 -0.561293,-0.561292 -1.784699,-0.82601 -2.55764,-0.568364 -0.401894,0.133966 -0.725744,0.465619 -1.136729,0.568364 -0.740916,0.18523 0.632256,0.0306 -0.113276,0.19627 -0.499189,0.110929 -2.144762,1.053493 -1.180565,1.053493"
       id="path18"
       sodipodi:nodetypes="cssssssssssc" />
    <path
       style="fill:none;stroke:#000000;stroke-width:1.72575"
       d="m 115.64814,36.31479 c -0.69602,0.522008 -1.53108,0.897664 -2.08805,1.566028 -0.35226,0.422711 -0.41409,1.026471 -0.522,1.566031 -0.0437,0.218636 -0.13678,1.561853 0.261,1.827037 0.30575,0.203829 2.50656,0.09113 2.87106,0 0.198,-0.0495 1.76936,-1.393024 1.82703,-1.566031 0.16537,-0.496091 0.34815,-3.044914 0.26101,-3.132061 -0.22054,-0.220542 -1.21453,0.05858 -1.56603,0 -0.35384,-0.05897 -0.69019,-0.319979 -1.04402,-0.261004 -1.94302,0.323835 -1.67556,1.044018 -3.13207,1.044018"
       id="path19" />
    <path
       style="fill:none;stroke:#000000;stroke-width:1.72575"
       d="m 80.151458,18.305443 c 0.977043,-0.399701 5.752716,-3.199388 8.091155,-2.349046 1.09789,0.399233 0.747128,5.109173 2.088039,6.003116 0.579118,0.386078 1.399023,-0.09843 2.08804,0 0.627017,0.08958 1.194685,0.558144 1.827037,0.522009 2.456771,-0.140386 4.927654,-0.420558 7.308141,-1.044019 5.88598,-1.541567 11.92586,-9.229386 15.9213,-13.5722625 0.83305,-0.9054817 1.63647,-1.8577317 2.61005,-2.6100501 6.1318,-4.73820758 1.70995,-0.4049242 3.65407,-2.3490452"
       id="path15" />
  </g>
</svg>
