<?xml version="1.0" encoding="UTF-8" standalone="no"?>
<!-- Created with Inkscape (http://www.inkscape.org/) -->

<svg
   width="130mm"
   height="54mm"
   viewBox="0 0 130 54"
   version="1.1"
   id="svg1"
   inkscape:version="1.3.2 (091e20e, 2023-11-25, custom)"
   sodipodi:docname="rough_oval.svg"
   xmlns:inkscape="http://www.inkscape.org/namespaces/inkscape"
   xmlns:sodipodi="http://sodipodi.sourceforge.net/DTD/sodipodi-0.dtd"
   xmlns="http://www.w3.org/2000/svg"
   xmlns:svg="http://www.w3.org/2000/svg">
  <sodipodi:namedview
     id="namedview1"
     pagecolor="#ffffff"
     bordercolor="#000000"
     borderopacity="0.25"
     inkscape:showpageshadow="2"
     inkscape:pageopacity="0.0"
     inkscape:pagecheckerboard="0"
     inkscape:deskcolor="#d1d1d1"
     inkscape:document-units="mm"
     inkscape:zoom="0.93103385"
     inkscape:cx="-92.907471"
     inkscape:cy="104.72229"
     inkscape:window-width="1920"
     inkscape:window-height="974"
     inkscape:window-x="-11"
     inkscape:window-y="-11"
     inkscape:window-maximized="1"
     inkscape:current-layer="layer1"
     showgrid="false" />
  <defs
     id="defs1" />
  <g
     inkscape:label="Layer 1"
     inkscape:groupmode="layer"
     id="layer1"
     transform="translate(-0.76579785,-1.2837021)">
    <path
       style="fill:#ffffff;fill-opacity:1;stroke:#000000;stroke-width:1.879"
       d="m 17.248371,45.047775 c 0.227055,-3.958752 -0.343361,-7.987012 0,-11.935656 0.365048,-4.198054 0.490819,-3.091336 1.136729,-6.536193 0.123441,-0.658352 0.111594,-1.342069 0.284182,-1.989277 0.480887,-1.803326 1.371498,-4.03005 2.273459,-5.683646 0.3271,-0.59968 0.854065,-1.083232 1.13673,-1.705093 0.199871,-0.439723 0.09058,-0.978392 0.284181,-1.420912 0.87476,-1.99945 2.405332,-5.091547 4.262734,-6.5361915 0.334396,-0.260086 0.777488,-0.343839 1.136729,-0.568365 0.195554,-0.122221 2.720409,-1.943745 2.841823,-1.989276 0.539518,-0.2023189 1.138185,-0.1811078 1.705094,-0.2841823 1.888705,-0.3434006 4.058886,-1.5228358 5.967828,-0.5683644 2.628382,1.3141897 4.316741,3.5871027 6.252012,5.6836452 0.636058,0.689064 1.455496,1.218262 1.989275,1.989276 0.0604,0.08725 1.9041,4.596869 1.989275,4.831099 0.165068,0.453936 0.119115,0.966975 0.284184,1.420911 0.217159,0.597193 0.6516,1.102252 0.852545,1.705094 0.182214,0.546636 0.118613,1.15319 0.284184,1.705094 0.121729,0.405768 0.476464,0.723183 0.568365,1.136729 0.102745,0.462357 -0.04713,0.949625 0,1.420911 0.115326,1.153279 0.687855,2.623881 0.852545,3.694369 0.172847,1.123511 -0.08099,2.276348 0,3.410188 0.12314,1.723972 0.35523,3.41021 0.568365,5.115282 0.05875,0.46998 -0.07786,0.953718 0,1.420911 0.571188,3.427134 -0.111009,-0.901391 0.852546,1.989278 0.204639,0.613915 -0.108802,2.340033 0.284183,3.126004 0.0053,0.01064 0.671386,-0.103021 0.284181,0.284181 -0.296449,0.29645 -1.798346,-0.08638 -2.273456,0 -2.522537,0.458645 -1.843804,0.691285 -4.262736,0.852548 -0.75614,0.05041 -1.521489,-0.094 -2.273456,0 -0.775113,0.09689 -1.501399,0.449586 -2.273459,0.568365 -2.028333,0.31205 -4.262181,-0.06309 -6.252011,-0.284184 -1.65516,-0.183906 -3.450786,0 -5.115283,0 -1.321337,0 -5.800881,0.339831 -6.820373,0 -0.12709,-0.04236 -0.157091,-0.241818 -0.284184,-0.284181 -0.727916,-0.242638 -1.157883,0.131514 -1.989275,-0.284183 -0.398669,-0.199335 -1.545858,0 -1.989275,0 -1.619747,0 -0.765178,0.07431 -2.557641,-0.284181 z"
       id="path8" />
    <path
       style="fill:#ffffff;fill-opacity:1;stroke:#000000;stroke-width:1.74682"
       d="m 75.439368,45.752932 c 0.489081,-9.328338 1.558854,-18.87503 4.563394,-27.897895 0.543009,-1.630703 2.280692,-5.708664 3.422541,-7.341552 0.17636,-0.252201 0.636194,-0.263491 0.855638,-0.489436 0.272186,-0.2802505 0.298238,-0.6986225 0.570424,-0.9788735 0.219444,-0.225945 0.592302,-0.301149 0.855635,-0.489437 0.309864,-0.221557 0.50543,-0.562449 0.855637,-0.734155 0.680678,-0.333736 1.547638,-0.253248 2.281694,-0.489437 0.398101,-0.128091 0.730663,-0.39345 1.140849,-0.489436 1.602278,-0.3749432 4.96959,-0.5847895 6.55988,0 0.7517,0.276419 1.30651,0.846857 1.99649,1.223591 0.35869,0.195855 0.82087,0.249212 1.14084,0.489437 0.45813,0.343951 0.7104,0.854256 1.14084,1.223592 0.43046,0.3693365 1.01472,0.5938425 1.42606,0.9788735 1.20939,1.132012 3.41668,3.753087 4.27819,5.139085 0.72278,1.162808 1.22557,2.420555 1.71127,3.670776 0.1533,0.394597 0.11955,0.832693 0.28522,1.223592 0.21794,0.514262 0.65396,0.949184 0.85563,1.46831 0.62492,1.608597 0.60353,2.74654 0.85563,4.404931 0.26085,1.715884 0.72149,3.412499 0.85564,5.139085 0.0506,0.651138 -0.11565,1.312755 0,1.957748 0.0779,0.434176 0.45936,0.794768 0.57042,1.223593 0.0825,0.31852 -0.0271,0.653409 0,0.978872 0.068,0.817714 0.21715,1.629471 0.28521,2.447183 0.0868,1.042813 -0.38707,2.674399 0,3.670778 0.0673,0.173041 0.24352,0.310574 0.28522,0.489435 0.002,0.0086 0.008,2.684822 0,2.691904 -0.62945,0.540078 -2.39562,0.244717 -3.13733,0.244717 -5.98946,0 -11.97891,0 -17.968362,0 -0.855635,0 -1.714785,-0.06647 -2.566908,0 -1.245323,0.09714 -2.463502,0.382677 -3.707755,0.489436 -1.402691,0.120355 -2.877923,-0.150181 -4.27818,0 -1.993742,0.213836 -3.223026,0.411083 -5.133817,-0.244717 z"
       id="path9" />
    <path
       style="fill:#000000;fill-opacity:1;stroke:#000000;stroke-width:1.879"
       d="m 29.880499,45.096111 c 0.212222,-1.035925 -0.160745,-2.170311 0,-3.215155 0.08399,-0.545928 0.305903,-1.063631 0.401894,-1.607577 0.10541,-0.597323 0.05384,-1.220084 0.200948,-1.808525 0.123722,-0.494892 0.433062,-0.925592 0.602843,-1.406631 0.332308,-0.941541 0.613785,-2.706253 1.607576,-3.416104 0.224735,-0.160523 0.547368,-0.09838 0.803789,-0.200946 0.08795,-0.03518 0.133966,-0.133966 0.200948,-0.200948 0.133964,-0.06698 0.259802,-0.153583 0.401894,-0.200946 1.106408,-0.368803 2.587223,0.34163 3.416102,1.004734 0.624128,0.499303 0.972513,2.172044 1.205685,2.813262 0.259315,0.713118 1.076179,1.634355 1.205682,2.411367 0.135046,0.810279 0,1.792836 0,2.612314 0,0.621686 -0.03333,2.394701 0,2.411367 0.119822,0.05991 0.307168,-0.09473 0.401894,0 0.09473,0.09473 -0.05991,0.282072 0,0.401894 0.02996,0.05991 0.153583,-0.04736 0.200949,0 0.213717,0.213717 0.200945,1.110425 0.200945,1.406631"
       id="path10" />
    <path
       style="fill:#000000;fill-opacity:1;stroke:#000000;stroke-width:1.879"
       d="m 88.557088,44.694217 c 0.728496,-5.099478 0.02627,-3.102414 2.009474,-7.2341 1.269351,-2.644486 1.100806,-2.813261 4.018948,-2.813261 0.41358,0 1.49211,-0.115462 1.80852,0.200948 0.19529,0.195284 0.0888,0.551416 0.20095,0.803788 0.28008,0.630188 0.6222,1.234721 1.00473,1.808525 0.10509,0.157636 0.31717,0.232442 0.4019,0.401895 0.0599,0.119821 -0.0263,0.270531 0,0.401894 0.0831,0.415406 0.33225,0.787812 0.40189,1.205682 0.0864,0.5187 -0.10306,1.09224 0,1.607579 0.26404,1.320218 0.20095,2.655668 0.20095,4.018944"
       id="path11" />
  </g>
</svg>
