<?xml version="1.0" encoding="UTF-8" standalone="no"?>
<!-- Created with Inkscape (http://www.inkscape.org/) -->

<svg
   width="130mm"
   height="54mm"
   viewBox="0 0 130 54"
   version="1.1"
   id="svg1"
   inkscape:version="1.3.2 (091e20e, 2023-11-25, custom)"
   sodipodi:docname="angry.svg"
   xmlns:inkscape="http://www.inkscape.org/namespaces/inkscape"
   xmlns:sodipodi="http://sodipodi.sourceforge.net/DTD/sodipodi-0.dtd"
   xmlns="http://www.w3.org/2000/svg"
   xmlns:svg="http://www.w3.org/2000/svg">
  <sodipodi:namedview
     id="namedview1"
     pagecolor="#ffffff"
     bordercolor="#000000"
     borderopacity="0.25"
     inkscape:showpageshadow="2"
     inkscape:pageopacity="0.0"
     inkscape:pagecheckerboard="0"
     inkscape:deskcolor="#d1d1d1"
     inkscape:document-units="mm"
     inkscape:zoom="0.93103385"
     inkscape:cx="-30.611132"
     inkscape:cy="63.907451"
     inkscape:window-width="1920"
     inkscape:window-height="974"
     inkscape:window-x="-11"
     inkscape:window-y="-11"
     inkscape:window-maximized="1"
     inkscape:current-layer="layer1"
     showgrid="false" />
  <defs
     id="defs1" />
  <g
     inkscape:label="Layer 1"
     inkscape:groupmode="layer"
     id="layer1"
     transform="translate(-0.76579785,-1.2837021)">
    <path
       style="fill:none;stroke:#000000;stroke-width:1.879"
       d="m 10.99636,2.136249 c 5.152319,1.0241808 9.4803,4.5028213 13.924932,7.1045573 1.572515,0.9204967 3.257191,1.6395277 4.831099,2.5576407 1.838757,1.072607 3.599643,2.273458 5.399463,3.410187 1.894549,1.042002 3.803216,2.058735 5.683647,3.126005 1.624849,0.922212 3.14996,2.026726 4.831099,2.841823 1.456531,0.706197 3.019089,1.170355 4.546917,1.705094 0.368644,0.129025 0.801817,0.08324 1.136729,0.284182 0.181632,0.108979 0.114729,0.441275 0.284181,0.568365 0.239644,0.179733 0.612902,0.10445 0.852546,0.284182 0.339871,0.254902 0.852549,1.316548 0.852549,1.705094"
       id="path6" />
    <path
       style="fill:#ffffff;stroke:#000000;stroke-width:1.879;fill-opacity:1"
       d="m 18.669282,6.3989832 c -4.988616,3.1260637 -5.115281,8.2904608 -5.115281,13.6407498 0,4.624862 0.231665,8.936282 1.705094,13.356567 0.383405,1.150218 0.739548,2.388145 1.420911,3.410188 0.148621,0.22293 0.430516,0.338616 0.568365,0.568365 0.154119,0.256865 0.09705,0.618633 0.284182,0.852545 0.213361,0.266703 0.663092,0.284184 0.852547,0.568365 0.21665,0.324977 0.03414,0.836684 0.284182,1.136729 0.271204,0.325446 0.815082,0.292669 1.136729,0.568365 0.359612,0.30824 0.517635,0.801817 0.852547,1.136729 0.581834,0.581835 1.973714,1.581079 2.841823,1.705095 0.468877,0.06698 0.952034,-0.06698 1.420911,0 0.209688,0.02996 0.35943,0.249359 0.568365,0.284183 1.114262,0.185709 4.875112,0.218543 5.967828,0 0.979935,-0.195987 2.416136,-1.113536 3.126005,-1.705094 0.162724,-0.135601 0.134405,-0.418589 0.284183,-0.568365 1.066112,-1.066114 0.523912,-0.179797 1.420911,-0.852548 0.04778,-0.03584 2.517523,-2.223309 2.557639,-2.273459 0.187132,-0.233912 0.10445,-0.612902 0.284184,-0.852545 0.331409,-0.441881 1.030341,-0.461976 1.420911,-0.852546 0.514402,-0.514403 1.532479,-2.71173 1.705094,-3.126007 0.749268,-1.798241 0.333248,-1.764361 0.568364,-3.410186 0.123844,-0.866907 0.362019,-1.732261 0.568365,-2.557641 0.353462,-1.413852 0,-5.351683 0,-7.104558"
       id="path7" />
    <path
       style="fill:#000000;fill-opacity:1;stroke:#000000;stroke-width:1.879"
       d="m 31.457486,35.669759 c -2.71631,-4.518506 4.390586,6.727971 -1.989278,-2.841823 -0.377102,-0.565658 -0.588425,-2.233337 -0.284181,-2.841823 0.04236,-0.08472 0.192284,0.02297 0.284181,0 0.290611,-0.07265 0.595683,-0.130062 0.852549,-0.284181 0.229745,-0.137851 0.345432,-0.419746 0.568364,-0.568365 0.194813,-0.129876 4.518266,-0.01431 4.546915,0 0.08473,0.04236 -0.06698,0.217199 0,0.284181 0.06698,0.06698 0.217202,-0.06698 0.284184,0 0.334912,0.334912 0.640728,0.713097 0.852546,1.136729 0.09768,0.195363 -0.154401,1.05953 0,1.13673 0.169455,0.08473 0.398912,-0.08473 0.568364,0 0.189455,0.09473 -0.189455,0.378909 -0.284181,0.568364 -0.909045,1.81809 -0.633201,0.633201 -1.989278,1.989275 -0.149775,0.149778 -0.134403,0.41859 -0.284181,0.568365 -0.06698,0.06699 -0.199456,-0.04236 -0.284183,0 -0.239644,0.119822 -0.314182,0.48364 -0.568365,0.568365 -0.684593,0.2282 -1.539616,0.284183 -2.273456,0.284183 z"
       id="path8" />
    <path
       style="fill:#ffffff;fill-opacity:1;stroke:#000000;stroke-width:1.879"
       d="m 82.610296,21.176462 c 1.440307,3.289178 0.540242,6.795186 0.852548,10.230563 0.324372,3.568089 0.284181,0.768974 0.284181,2.841823 0,0.899658 0.286608,3.271126 0.852549,3.97855 0.25106,0.313828 0.629615,0.518152 0.852545,0.852549 1.814545,2.721813 -2.362099,-1.793735 1.420913,1.989275 0.900653,0.900655 1.67172,1.955903 2.55764,2.841823 0.67664,0.67664 1.474269,0.737135 2.273459,1.13673 0.305485,0.152744 0.528529,0.460359 0.852546,0.568364 0.269599,0.08987 0.572232,-0.04672 0.852548,0 2.093306,0.348885 4.114125,0.99681 6.252009,0.284181 0.596786,-0.198927 1.108306,-0.653618 1.705096,-0.852545 0.63545,-0.211818 1.36736,-0.03542 1.98927,-0.284181 0.24877,-0.09951 0.37891,-0.37891 0.56837,-0.568365 0.37891,-0.189455 0.74007,-0.419619 1.13673,-0.568365 0.3657,-0.137139 0.79762,-0.0904 1.13673,-0.284183 0.58157,-0.332325 0.94727,-0.947275 1.42091,-1.420911 0.56278,-0.562784 1.62271,-0.971971 1.98927,-1.705094 0.72537,-1.450729 1.86182,-2.900336 2.27346,-4.546917 0.18885,-0.755373 0.0503,-1.856103 0.28418,-2.55764 0.0847,-0.25418 0.46283,-0.322099 0.56837,-0.568365 0.70876,-1.653767 0.28418,-3.918892 0.28418,-5.683646 0,-1.573003 0.34091,-5.740926 0,-7.104557 -0.0514,-0.205493 -0.24264,-0.360661 -0.28418,-0.568365 -0.0557,-0.278663 0.10554,-0.58869 0,-0.852547 -0.0995,-0.248766 -0.46886,-0.319598 -0.56837,-0.568364 -0.10554,-0.263857 0.0557,-0.573883 0,-0.852547 -0.0516,-0.258156 -0.555,-1.955884 -0.56836,-1.989276 -0.0498,-0.124383 -0.25169,-0.154217 -0.28418,-0.284182 -0.0689,-0.275698 0.10554,-0.588691 0,-0.852547 -0.0995,-0.248767 -0.44854,-0.328721 -0.56837,-0.568365 -0.0847,-0.169453 0.0599,-0.388632 0,-0.568364 -0.13396,-0.401895 -0.4344,-0.734835 -0.56836,-1.13673 -0.072,-0.216123 -0.66673,-2.9620487 -0.85255,-3.054959 -0.16945,-0.084727 0.2605,0.035523 0.071,0.035523"
       id="path10"
       sodipodi:nodetypes="csssssssssssscssssscssccssscsscscsc" />
    <path
       style="fill:#000000;fill-opacity:1;stroke:#000000;stroke-width:1.879"
       d="m 99.092868,31.407024 c 0,0.473639 0,0.947275 0,1.420913 0,0.57947 -0.179546,1.734818 0,2.273459 0.197959,0.593868 1.726632,1.908905 2.273462,2.273456 0.39184,0.261231 3.37757,0.06524 3.69437,-0.568365 0.21181,-0.423632 0,-0.947271 0,-1.42091 0,-0.564602 0.30825,-1.811083 0,-2.273459 -0.14862,-0.22293 -0.43052,-0.338616 -0.56837,-0.568364 -0.15412,-0.256866 -0.11802,-0.603303 -0.28418,-0.852546 -0.17186,-0.257789 -3.42368,-1.469652 -3.97855,-1.136729 -0.406143,0.243683 -0.757822,0.568364 -1.136732,0.852545 z"
       id="path11" />
    <path
       style="fill:none;fill-opacity:1;stroke:#000000;stroke-width:1.879"
       d="m 118.70145,2.136249 c -0.60494,0.6300789 -1.57945,0.4361389 -2.27346,0.8525468 -0.63441,0.3806471 -1.075,1.0331607 -1.70509,1.4209115 -0.83061,0.5111409 -1.70145,0.9538973 -2.55765,1.4209114 -0.58383,0.3184536 -1.52005,0.3833234 -1.98927,0.8525468 -0.24151,0.2415085 -0.28418,0.6630921 -0.56837,0.852547 -0.32497,0.2166499 -1.78456,0.9544635 -2.14147,1.1130894 -1.49565,0.664736 -1.51921,0.9261675 -3.00681,1.6203801 -1.03721,0.484033 -1.38507,0.920464 -2.4478,1.345556 -0.36264,0.145055 -0.48598,0.511408 -0.83531,0.686077 -0.23964,0.119821 -0.88133,0.473661 -1.12097,0.593482 -0.169455,0.08473 -0.483895,0.511505 -1.447509,0.803789 -1.076095,0.326402 -1.286825,0.39145 -2.210906,0.717597 -0.763212,0.269368 -1.35493,0.39566 -2.122748,0.6516 -0.370528,0.123509 -0.826936,0.158595 -1.161849,0.359537 -0.181631,0.108979 -0.768003,0.415891 -0.937259,0.543246 -0.252652,0.190104 -0.364867,0.55431 -1.80409,1.12097 -1.657324,0.652531 -1.80617,0.472284 -3.190521,1.510547 -1.1249,0.843674 -1.826675,1.206608 -2.945254,2.325174 -0.481277,0.481277 -2.564451,1.175059 -3.045728,1.656336 -1.142421,1.14242 -1.834719,1.313041 -2.841824,2.571921 -0.426871,0.533591 -2.489332,2.255506 -2.841823,2.557641 -0.160822,0.137849 -0.436044,0.11878 -0.568365,0.284182 -1.276961,1.596205 0.239858,0.867322 -1.42091,1.420913"
       id="path12"
       sodipodi:nodetypes="cssssssssssssssssssssssc" />
  </g>
</svg>
