<?xml version="1.0" encoding="UTF-8" standalone="no"?>
<!-- Created with Inkscape (http://www.inkscape.org/) -->

<svg
   width="130mm"
   height="54mm"
   viewBox="0 0 130 54"
   version="1.1"
   id="svg1"
   inkscape:version="1.3.2 (091e20e, 2023-11-25, custom)"
   sodipodi:docname="smooth_veiny.svg"
   xmlns:inkscape="http://www.inkscape.org/namespaces/inkscape"
   xmlns:sodipodi="http://sodipodi.sourceforge.net/DTD/sodipodi-0.dtd"
   xmlns="http://www.w3.org/2000/svg"
   xmlns:svg="http://www.w3.org/2000/svg">
  <sodipodi:namedview
     id="namedview1"
     pagecolor="#ffffff"
     bordercolor="#000000"
     borderopacity="0.25"
     inkscape:showpageshadow="2"
     inkscape:pageopacity="0.0"
     inkscape:pagecheckerboard="0"
     inkscape:deskcolor="#d1d1d1"
     inkscape:document-units="mm"
     inkscape:zoom="2"
     inkscape:cx="502"
     inkscape:cy="18.75"
     inkscape:window-width="1920"
     inkscape:window-height="974"
     inkscape:window-x="-11"
     inkscape:window-y="-11"
     inkscape:window-maximized="1"
     inkscape:current-layer="layer1"
     showgrid="false" />
  <defs
     id="defs1" />
  <g
     inkscape:label="Layer 1"
     inkscape:groupmode="layer"
     id="layer1"
     transform="translate(-0.76579785,-1.2837021)">
    <ellipse
       style="fill:#ffffff;fill-opacity:1;stroke:#000000;stroke-width:1.065;stroke-dasharray:none;stroke-opacity:1"
       id="path1-0"
       cx="103.19392"
       cy="28.341236"
       rx="26.725981"
       ry="26.525034" />
    <path
       style="fill:#000000;stroke:#000000;stroke-width:2.9383"
       d="m 104.05549,21.880335 c -1.56721,1.540129 -3.50169,2.733691 -4.701621,4.62039 -1.40312,2.2062 0.4854,3.33119 1.709691,4.158347 1.38287,0.934306 4.45795,1.699162 5.98387,0.462037 0.85156,-0.690401 0.67508,-1.10652 1.70967,-1.386115 0.27645,-0.0747 0.59997,0.13775 0.85483,0 0.29483,-0.159339 0.6371,-4.242661 0.42743,-4.62039 -0.2643,-0.476167 -0.84176,-0.638376 -1.28226,-0.924075 -0.27587,-0.178923 -1.40269,-0.813462 -1.70967,-0.924079 -0.27033,-0.09739 -0.61775,0.170857 -0.85484,0 -2.89855,-2.088867 3.95374,0.259924 -2.1371,-1.386115 z"
       id="path2-2" />
    <ellipse
       style="fill:#ffffff;fill-opacity:1;stroke:#000000;stroke-width:1.065;stroke-dasharray:none;stroke-opacity:1"
       id="path1"
       cx="28.024279"
       cy="28.593658"
       rx="26.725981"
       ry="26.525034" />
    <path
       style="fill:#000000;stroke:#000000;stroke-width:2.56253"
       d="m 27.611938,23.643017 c -1.415083,1.297321 -3.161801,2.302713 -4.245245,3.891965 -1.266926,1.858383 0.438278,2.806013 1.543724,3.502765 1.248653,0.787008 4.025248,1.431281 5.403041,0.389194 0.768902,-0.581555 0.609565,-0.932072 1.543727,-1.167587 0.249605,-0.06292 0.54174,0.116033 0.771862,0 0.266208,-0.134218 0.575237,-3.573787 0.385934,-3.891965 -0.238639,-0.401097 -0.760064,-0.537733 -1.157796,-0.778391 -0.249097,-0.150714 -1.266538,-0.685215 -1.543727,-0.778393 -0.244083,-0.08204 -0.557785,0.143921 -0.771863,0 -2.617182,-1.759548 3.569974,0.218945 -1.929657,-1.167588 z"
       id="path2" />
    <g
       id="g16">
      <path
         style="fill:none;fill-opacity:1;stroke:#ed0000;stroke-width:1.279;stroke-dasharray:none;stroke-opacity:1"
         d="m 42.85756,50.01919 c -0.409915,-0.634675 0.2705,-0.07202 -1.737878,-1.277046 -0.553143,-0.331886 -1.245772,-0.109043 -1.705094,-0.568365 -0.06698,-0.06698 0.04236,-0.199454 0,-0.284181 -1.206016,-2.412032 1.412552,-2.825104 2.273459,-4.546917 0.128767,-0.257535 0,-1.168734 0,-1.420911 0,-0.189455 0.133966,-0.434401 0,-0.568365 -0.133869,-0.133868 -1.600711,-1.368721 -1.705094,-1.420913 -0.662998,-0.331499 -0.585364,0.267182 -1.13673,-0.284181"
         id="path3"
         sodipodi:nodetypes="csscssssc" />
      <path
         style="fill:none;fill-opacity:1;stroke:#ed0000;stroke-width:1.279;stroke-dasharray:none;stroke-opacity:1"
         d="m 52.534173,19.408392 c -0.76953,0.313413 -1.35271,0.180719 -2.186042,0.40799 -0.144499,0.03941 -0.258432,0.157909 -0.401894,0.200947 -0.856642,0.256993 -0.418356,0.03181 -1.154054,0.557306 -0.103248,0.07375 -0.579043,0.483855 -0.602839,0.602842 -0.235847,1.179236 0.433128,2.033939 0.703315,3.114682 0.03249,0.129965 -0.01894,0.269276 0,0.401895 0.05014,0.351016 0.192635,0.736561 0.100473,1.105209 -0.09715,0.388602 -1.760784,1.041726 -2.109946,1.10521 -0.32951,0.05991 -0.671201,0.03032 -1.004737,0 -1.167823,-0.106166 -0.04195,-0.04382 -1.205683,-0.401894 -0.226345,-0.06965 -0.480755,-0.01954 -0.703315,-0.100474 -0.292253,-0.106274 -0.664218,-0.524648 -0.803788,-0.803789 -0.246068,-0.492134 -0.08827,-1.100531 -0.200949,-1.607578 -0.128423,-0.577908 -0.470476,-1.16476 -0.703315,-1.708051 -0.04172,-0.09735 -0.06698,-0.200947 -0.100473,-0.301421 -0.03349,-0.200947 -0.02482,-0.413693 -0.100473,-0.602842 -0.142076,-0.355186 -0.491897,-0.507803 -0.703315,-0.803789 -0.06156,-0.08618 -0.02558,-0.226532 -0.100476,-0.30142 -0.830442,-0.830443 -3.116127,-1.004736 -4.21989,-1.004736"
         id="path4"
         sodipodi:nodetypes="cssscssssssssssccscc" />
      <path
         style="fill:none;fill-opacity:1;stroke:#ed0000;stroke-width:1.279;stroke-dasharray:none;stroke-opacity:1"
         d="m 42.964714,24.995474 c -0.730064,0 -0.44918,-0.08225 -1.306155,0.703316 -0.365696,0.335221 -0.420407,1.131634 -0.301421,1.607577 0.05275,0.211008 0.983133,1.760175 0.703315,2.109946 -0.09357,0.116957 -0.277273,0.117867 -0.401894,0.200949 -0.178432,0.118954 -0.320516,0.288237 -0.50237,0.401894 -0.08981,0.05613 -0.216693,0.03693 -0.301421,0.100473 -0.05991,0.04493 -0.04752,0.147992 -0.100473,0.200948 -0.286149,0.286147 -0.748903,0.31051 -1.105209,0.502367 -0.346837,0.186759 -0.360535,0.401894 -0.703316,0.401894"
         id="path5" />
      <path
         style="fill:none;fill-opacity:1;stroke:#ed0000;stroke-width:1.279;stroke-dasharray:none;stroke-opacity:1"
         d="m 25.344305,2.7396554 c 0.03359,0.3318183 -0.271701,0.629939 -0.501424,0.9252967 -0.344049,0.4423484 -0.387391,2.5325101 -0.132292,3.0427083 0.293415,0.5868294 0.50673,0.4618579 0.661459,0.9260416 0.180652,0.5419574 0.478062,2.2444257 0.264583,2.778125 -0.08313,0.207826 -1.378458,1.350687 -1.5875,1.455208 -0.124726,0.06236 -0.261591,0.09847 -0.396875,0.132292 -0.04278,0.01069 -0.112571,-0.03944 -0.132292,0 -0.03944,0.07888 0.02789,0.180915 0,0.264583 -0.01972,0.05916 -0.112571,0.07313 -0.132291,0.132292 -0.14018,0.420539 0.19551,1.064187 0,1.455208 -0.202891,0.405781 -0.926042,0.264282 -0.926042,0.264584 0,0.06236 0.08438,0.09237 0.132292,0.132291 0.216915,0.180763 0.461799,0.329508 0.661458,0.529167 0.112426,0.112426 0.152157,0.284449 0.264583,0.396875 0.06972,0.06972 0.209888,0.05025 0.264584,0.132292 0.122935,0.184402 -0.149292,0.303014 0.132291,0.396875 0.167337,0.05578 0.404441,-0.124726 0.529167,0 0.171107,0.171107 -0.259547,0.646349 -0.264583,0.661458 -0.04808,0.144226 -0.155462,1.262077 -0.396875,1.455208 -0.218801,0.17504 -0.881394,0.264584 -1.190625,0.264584 -0.0441,0 -0.107831,-0.03669 -0.132292,0 -0.161564,0.242345 -0.496455,0.992909 -0.661458,1.322916 -0.06236,0.124726 -0.09847,0.261591 -0.132292,0.396875 -0.0107,0.04278 0.03944,0.112571 0,0.132292 -0.07888,0.03944 -0.176389,0 -0.264583,0"
         id="path6"
         sodipodi:nodetypes="cssssscssssscssssscssssssc" />
      <path
         style="fill:none;fill-opacity:1;stroke:#ed0000;stroke-width:1.279;stroke-dasharray:none;stroke-opacity:1"
         d="m 25.107464,11.205577 c 0.618199,0 0.782645,-0.06417 1.322917,0.132292 0.03925,0.01427 1.121484,0.696029 1.455208,0.529166 0.406077,-0.203039 0.807596,-0.417712 1.190625,-0.661458 0.440325,-0.280208 0.228066,-0.79375 0.79375,-0.79375 0.132292,0 0.283435,-0.06806 0.396875,0 1.166942,0.700166 0.02109,0.163939 0.264583,0.529167 0.311404,0.467106 0.93177,1.458072 1.455209,1.719791 0.19721,0.0986 0.464248,0.0986 0.661458,0 0.841338,-0.420668 1.71477,-1.582479 2.38125,-2.248958 0.220485,-0.220486 0.402013,-0.4884949 0.661458,-0.6614583 0.03669,-0.024461 0.08819,0 0.132292,0 0.0441,-0.044097 0.08819,-0.088194 0.132292,-0.1322917"
         id="path7" />
      <path
         style="fill:none;fill-opacity:1;stroke:#ed0000;stroke-width:1.279;stroke-dasharray:none;stroke-opacity:1"
         d="m 32.383506,12.528494 c -0.669383,0.01484 -0.784474,0.227478 -0.926042,0.79375 -0.111006,0.444022 -0.071,1.119626 0.264583,1.455208 0.112427,0.112426 0.297551,0.140429 0.396875,0.264583 0.328706,0.410881 0.565905,1.741874 0.396875,2.248959 -0.03118,0.09354 -0.05025,0.209887 -0.132291,0.264583 -0.153226,0.102151 -0.630415,0.0098 -0.79375,0.132292 -0.149672,0.112253 -0.247206,0.284621 -0.396875,0.396875 -0.162915,0.122185 -0.264584,-0.312657 -0.264584,0.264583 0,0.181817 0.347351,0.132292 0.529167,0.132292"
         id="path8" />
      <path
         style="fill:none;fill-opacity:1;stroke:#ed0000;stroke-width:1.279;stroke-dasharray:none;stroke-opacity:1"
         d="m 1.8261982,28.302207 c 0.2259983,0.0028 0.8758528,0.256129 1.0562663,0.233578 0.1956859,-0.02445 0.3527778,-0.17639 0.5291666,-0.264583 0.6388082,-0.319405 1.3660472,-0.679291 2.1166667,-0.529167 0.1297226,0.02596 0.4643054,0.251611 0.5291667,0.264583 0.3891679,0.07783 0.8001515,-0.07099 1.1906249,0 0.2743968,0.04989 0.5202706,0.209889 0.79375,0.264584 0.5144675,0.102894 0.4630209,-0.07717 0.9260417,0 0.2416979,0.04028 0.9456483,0.316023 1.1906249,0.132291 0.749359,-0.56202 0.645343,-1.442316 1.322917,-1.984375 0.09525,-0.0762 0.664633,0 0.79375,0 0.614949,0 2.922486,0.126257 3.175,0 0.135141,-0.06757 0.491794,-1.133078 0.396875,-1.322916 -0.06236,-0.124726 -0.27215,0.06993 -0.396875,0.132291"
         id="path9"
         sodipodi:nodetypes="ccscsssssssssc" />
      <path
         style="fill:none;fill-opacity:1;stroke:#ed0000;stroke-width:1.279;stroke-dasharray:none;stroke-opacity:1"
         d="m 10.026214,28.403493 c -0.086778,0.463871 -0.3604338,2.640092 0,2.910417 0.583476,0.437608 1.637637,0.629441 1.984375,1.322917 0.03944,0.07888 0.01247,0.177276 0,0.264583 -0.149994,1.049959 -0.332633,0.928582 -0.926041,1.719792 -0.118326,0.157765 -0.138334,0.377666 -0.264584,0.529166 -0.101786,0.122143 -0.284448,0.152157 -0.396875,0.264584 -0.372498,0.0082 -0.03369,0.29827 -0.132291,0.396875 -0.03118,0.03118 -0.101111,-0.03118 -0.132292,0 -0.331525,0.331525 0.562397,1.885312 0.79375,2.116666 0.158995,0.158994 0.448144,-0.06119 0.661458,-0.132291"
         id="path10" />
      <path
         style="fill:none;fill-opacity:1;stroke:#ed0000;stroke-width:1.279;stroke-dasharray:none;stroke-opacity:1"
         d="m 12.010589,33.430577 c 0.220486,-0.08819 0.440973,-0.17639 0.661459,-0.264584 0.220486,-0.08819 0.436174,-0.189489 0.661458,-0.264583 0.436563,-0.145521 1.018646,0.145521 1.455208,0 1.242737,-0.414245 0.553945,-0.396875 1.058334,-0.396875"
         id="path11" />
      <path
         style="fill:none;fill-opacity:1;stroke:#ed0000;stroke-width:1.279;stroke-dasharray:none;stroke-opacity:1"
         d="m 14.772178,51.017099 c 0.103352,-0.172254 -0.01805,-0.480226 0.01654,-0.653189 0.03389,-0.169445 0.35168,-0.348385 0.396875,-0.529167 0.165423,-0.661694 0,-2.019681 0,-2.778125 0,-0.275799 0.07245,-0.853588 -0.132291,-1.058333 -0.03118,-0.03118 -0.09448,0.02267 -0.132292,0 -0.242122,-0.145272 -0.393588,-0.439878 -0.661458,-0.529167 -0.444544,-0.148182 -0.727991,-0.0673 -0.926042,-0.661458 -0.0986,-0.295804 1.071491,-1.442051 0.661458,-1.852083 -0.06972,-0.06972 -0.182539,-0.0776 -0.264583,-0.132292 -0.291982,-0.194654 0.06771,-0.132292 -0.396875,-0.132292"
         id="path12"
         sodipodi:nodetypes="csssscssscc" />
      <path
         style="fill:none;fill-opacity:1;stroke:#ed0000;stroke-width:1.279;stroke-dasharray:none;stroke-opacity:1"
         d="m 23.511939,54.247829 c 0.257247,-1.157803 0.205827,-0.314592 -0.124266,-1.634961 -0.03209,-0.128341 0.02175,-0.266382 0,-0.396875 -0.0634,-0.380423 -0.348915,-1.106294 0,-1.455208 0.03118,-0.03118 0.09285,0.01971 0.132291,0 0.05578,-0.02789 0.08819,-0.08819 0.132292,-0.132292 0.220486,-0.132292 0.417524,-0.315563 0.661458,-0.396875 0.167337,-0.05578 0.355178,0.029 0.529167,0 0.492213,-0.08204 0.958208,-0.803264 1.190625,-1.190625 0.28545,-0.47575 0.507749,-0.90084 0.396875,-1.455208 -0.02748,-0.137393 -0.361255,-0.616932 -0.396875,-0.661458 -0.253974,-0.317469 -0.491559,-0.654072 -0.79375,-0.926042 -0.146584,-0.131927 -0.365079,-0.155191 -0.529167,-0.264583 -0.500803,-0.33387 -0.934873,-0.705615 -1.058333,-1.322917 -0.01392,-0.06958 -0.02159,-0.920647 0,-0.926042 0.171122,-0.04278 0.355178,0.029 0.529167,0 1.142804,-0.190468 0.981393,-1.104553 0.661458,-1.984375 -0.272965,-0.750652 -0.594098,-0.858681 -1.058333,-1.322916"
         id="path13"
         sodipodi:nodetypes="csssccssssssssccsc" />
      <path
         style="fill:none;fill-opacity:1;stroke:#ed0000;stroke-width:1.279;stroke-dasharray:none;stroke-opacity:1"
         d="m 25.372048,46.39516 c 0.780253,0.0075 1.373789,-1.312736 1.5875,-1.455208 0.226089,-0.150728 1.578647,0.129635 1.587499,0.132291 0.152289,0.04569 0.242629,0.226021 0.396875,0.264584 0.365348,0.09134 1.373095,0.07573 1.719792,-0.132292 0.524711,-0.314828 0.517097,-2.838236 1.455208,-3.307292 0.149151,-0.07458 0.49996,0 0.661459,0"
         id="path14" />
      <path
         style="fill:none;fill-opacity:1;stroke:#ed0000;stroke-width:1.279;stroke-dasharray:none;stroke-opacity:1"
         d="m 13.780822,6.7676155 c 0.22266,0.3293916 0.295008,0.9029811 0.346434,1.2629615 0.117841,0.8248851 -0.05854,1.6489598 0.661458,2.248958 0.355368,0.29614 1.710365,0.748815 1.455209,1.322917 -0.129148,0.290583 -0.368941,0.519077 -0.529167,0.79375 -0.149052,0.255517 -0.216515,0.559281 -0.396875,0.79375 -0.587787,0.764123 -1.394246,1.282687 -1.5875,2.248958 -0.05041,0.252063 0.06227,0.544668 0,0.79375 -0.157072,0.628287 -0.382178,0.891743 0.264583,1.322917 0.391949,0.261299 0.314431,0.264583 0.661459,0.264583"
         id="path15"
         sodipodi:nodetypes="cssssssssc" />
    </g>
    <path
       style="fill:none;fill-opacity:1;stroke:#ed0000;stroke-width:1.279;stroke-dasharray:none;stroke-opacity:1"
       d="m 118.81356,49.217634 c -0.60358,-0.824497 0.0412,-1.600623 -0.36899,-2.284298 -0.66426,-1.107102 -2.28103,-1.4462 -2.43215,-2.80633 -0.0413,-0.371888 -0.14392,-0.777137 0,-1.122532 0.70302,-1.687266 2.96853,-2.170411 3.55468,-3.928861 0.11833,-0.354976 0,-0.748356 0,-1.122532 0,-0.374176 0.16734,-0.787858 0,-1.122532 -0.13928,-0.278566 -1.89529,-1.372301 -2.05797,-1.496711 -0.70408,-0.538408 -1.52431,-0.684268 -2.23338,-1.216075 -0.22145,-0.166085 -0.19878,-0.228838 -0.19878,-0.654809"
       id="path16"
       sodipodi:nodetypes="csscssscsc" />
    <path
       style="fill:none;fill-opacity:1;stroke:#ed0000;stroke-width:1.279;stroke-dasharray:none;stroke-opacity:1"
       d="m 77.778232,34.538318 c 0.646731,-0.144389 0.989608,-0.501118 1.502669,-0.843158 0.188754,-0.125836 0.414644,-0.129082 0.595313,-0.264583 0.04989,-0.03742 0.07439,-0.10913 0.132291,-0.132292 0.178097,-0.07124 0.848334,0 1.058334,0 0.777684,0 2.016474,0.119322 2.711979,-0.06615 0.53228,-0.141941 0.651184,-0.271478 1.124479,-0.595312 0.79843,-0.546293 1.038804,-0.810181 1.5875,-1.5875 0.127151,-0.180131 0.283435,-0.340101 0.396875,-0.529167 0.08639,-0.143989 0.127428,-0.310856 0.198437,-0.463021 0.277374,-0.59437 0.454734,-1.165767 0.661459,-1.785937 0.138916,-0.416751 0.412247,-0.932098 0.46302,-1.389063 0.02434,-0.219137 -0.02434,-0.442321 0,-0.661458 0.01003,-0.09035 0.0571,-0.174126 0.06615,-0.264583 0.01318,-0.131636 -0.02365,-0.266718 0,-0.396875 0.02125,-0.116821 0.105593,-0.215035 0.132292,-0.33073 0.03997,-0.173209 0.0099,-0.360527 0.06615,-0.529166 0.03755,-0.112643 0.218085,-0.09474 0.330729,-0.132292"
       id="path18"
       sodipodi:nodetypes="cssssssssssssscscc" />
    <path
       style="fill:none;fill-opacity:1;stroke:#ed0000;stroke-width:1.279;stroke-dasharray:none;stroke-opacity:1"
       d="m 87.879859,28.866514 c 0.258273,0.105437 0.95104,-0.119792 1.190625,0 0.09861,0.0493 0.124688,0.182639 0.198438,0.264584 0.125156,0.139062 0.264583,0.264583 0.396875,0.396875 0.726008,0.726008 0.661458,1.039431 0.661458,1.984375 0,0.154339 0.02183,0.310231 0,0.46302 -0.0681,0.476708 -0.297672,0.917843 -0.396875,1.389063 -0.02905,0.138004 -0.03173,1.33776 0.06615,1.455208 0.124896,0.149876 1.24882,0.432739 1.521354,0.463021 0.07779,0.0087 1.270905,0.04608 1.455208,0 0.0605,-0.01513 0.08154,-0.09604 0.132292,-0.132292 0.104616,-0.07473 0.220485,-0.132291 0.330729,-0.198437 0.03805,-0.02283 0.550373,-0.240848 0.595313,-0.330729 0.04066,-0.08131 0.02548,-0.183272 0.06615,-0.264584 0.461573,-0.807754 0.08717,-0.111709 0.46302,-0.926041 0.06198,-0.134295 0.155938,-0.255207 0.198438,-0.396875 0.02535,-0.08448 -0.02138,-0.179023 0,-0.264584 0.0053,-0.02138 0.05628,-0.01971 0.06615,0 0.01971,0.03944 -0.01638,0.09135 0,0.132292 0.400587,1.001469 0.08682,0.09974 0.595312,0.926042 0.08801,0.143007 0.108286,0.321355 0.198438,0.463021 0.06696,0.105227 0.188007,0.166131 0.264583,0.264583 0.07893,0.101483 0.119507,0.229245 0.198437,0.330729 0.335167,0.43093 0.851726,0.6243 1.322917,0.859896 0.0986,0.0493 0.163253,0.155011 0.264583,0.198437 0.209627,0.08984 0.442024,0.06615 0.661459,0.06615"
       id="path19" />
    <path
       style="fill:none;fill-opacity:1;stroke:#ed0000;stroke-width:1.279;stroke-dasharray:none;stroke-opacity:1"
       d="m 87.993547,49.518483 c 0.269408,-0.365179 0.342695,-0.735892 0.547771,-1.072802 0.105693,-0.173641 0.281167,-0.295887 0.396875,-0.463021 0.08419,-0.121608 0.12234,-0.270047 0.198437,-0.396875 0.05672,-0.09453 0.141719,-0.170051 0.198438,-0.264583 0.03728,-0.06213 0,-0.401802 0,-0.463021 0,-0.132292 0.04183,-0.271373 0,-0.396875 -0.04066,-0.121968 -0.145238,-0.213688 -0.198438,-0.330729 -0.08986,-0.197689 -0.161631,-0.404114 -0.264583,-0.595313 -0.420391,-0.780725 0.01894,0.122902 -0.396875,-0.396875 -0.102082,-0.127601 -0.09074,-0.474329 0,-0.595312 0.270454,-0.360606 1.228756,-0.789864 1.389062,-1.190625 0.03903,-0.09757 0,-0.365959 0,-0.463021 0,-0.08819 0.03944,-0.185701 0,-0.264584 -0.242811,-0.485621 -0.815954,-0.75869 -1.124479,-1.190625 -0.05731,-0.08024 -0.581962,-1.125116 -0.512631,-1.513086 0.02825,-0.158084 -0.230809,-0.55405 -0.198437,-0.264583 l 0.314189,0.917774"
       id="path20"
       sodipodi:nodetypes="cssssssssssssssscc" />
    <path
       style="fill:none;fill-opacity:1;stroke:#ed0000;stroke-width:1.279;stroke-dasharray:none;stroke-opacity:1"
       d="m 90.079209,43.071332 c 0.468528,0.330729 0.213987,0.887785 0.297656,0.859895 0.05916,-0.01971 0.09536,-0.149814 0.148828,-0.1819 0.28467,-0.170802 1.565685,-0.293905 1.852083,-0.198438 1.692418,0.564139 -0.431988,0.0064 0.595312,0.463021 0.122558,0.05447 0.265364,0.03984 0.396875,0.06615 0.615736,0.123147 1.074079,-0.03276 1.653646,-0.264584 0.174908,-0.06996 0.366445,-0.103515 0.529167,-0.198437 0.301575,-0.175919 0.631333,-1.058333 0.79375,-1.058333"
       id="path21"
       sodipodi:nodetypes="csssscssc" />
    <path
       style="fill:none;fill-opacity:1;stroke:#ed0000;stroke-width:1.279;stroke-dasharray:none;stroke-opacity:1"
       d="m 98.250286,53.871706 c 0.05115,-0.256726 -0.02733,-1.488528 0.146761,-2.18488 0.602731,-2.410925 -0.118129,0.30997 0.396875,-0.926041 0.248999,-0.597601 0.06738,-0.596543 0.529166,-1.058334 0.06615,-0.06615 0.113279,-0.159728 0.198438,-0.198437 0.16552,-0.07524 0.357941,-0.07114 0.529164,-0.132292 0.13929,-0.04975 0.25225,-0.167447 0.39688,-0.198437 0.17247,-0.03696 0.35562,0.03155 0.52916,0 0.0782,-0.01423 0.12132,-0.113012 0.19844,-0.132292 0.36907,-0.09227 1.11634,0.02532 1.52136,0 0.19926,-0.01246 0.39604,-0.05369 0.59531,-0.06615 0.15404,-0.0096 0.31329,0.03743 0.46302,0 0.12472,-0.03118 0.21786,-0.136874 0.33073,-0.198437 0.62305,-0.339847 0.49155,-0.338505 0.92604,-0.859896 0.11977,-0.143727 0.2771,-0.253151 0.39687,-0.396875 0.3721,-0.446513 0.59378,-1.065255 0.46303,-1.653646 -0.0412,-0.185153 -0.21225,-0.314915 -0.33073,-0.463021 -0.61542,-0.76927 -1.50032,-1.144402 -2.31511,-1.653645 -0.0836,-0.05226 -0.18883,-0.06917 -0.26458,-0.132292 -0.0611,-0.05089 -0.0761,-0.142224 -0.13229,-0.198438 -0.0562,-0.05621 -0.14878,-0.07021 -0.19844,-0.132291 -0.21849,-0.273111 -0.0355,-1.217965 0.0661,-1.455209 0.12247,-0.285763 0.39982,-0.570621 0.66145,-0.727604 0.13765,-0.08258 0.32366,-0.05265 0.46302,-0.132291 0.0957,-0.0547 0.16223,-0.157494 0.26459,-0.198438 0.12452,-0.04981 0.2751,-0.0099 0.39687,-0.06615 0.17222,-0.07948 0.31388,-0.213548 0.46302,-0.330729 0.71868,-0.564674 0.65915,-0.852956 0.92605,-1.653646 0.0398,-0.119517 0.13229,-0.200691 0.13229,-0.330729"
       id="path22"
       sodipodi:nodetypes="cssssssssscsssscssssscssscscc" />
    <path
       style="fill:none;fill-opacity:1;stroke:#ed0000;stroke-width:1.279;stroke-dasharray:none;stroke-opacity:1"
       d="m 82.627466,12.247374 c 0.09578,0.07855 0.08774,0.09494 0.188103,0.14056 0.07968,0.03622 1.045703,0.900781 1.09554,1.000455 0.263634,0.527269 -0.09204,1.670923 -0.264583,2.050521 -0.15974,0.351429 -0.722249,0.641774 -0.529167,1.124479 0.270746,0.676866 0.754383,0.355108 0.595313,1.389063 -0.03166,0.205775 -0.440889,1.146612 -0.330729,1.256771 0.09233,0.09233 0.613701,-0.04271 0.727604,0 0.515593,0.193347 -0.05066,1.484187 -0.06615,1.521354 -0.0848,0.203526 -0.293116,0.33462 -0.396875,0.529167 -0.188891,0.354168 -0.103785,0.613576 -0.198438,0.992187 -0.02392,0.09566 -0.118348,0.16697 -0.132291,0.264583 -0.0099,0.06902 0.03496,0.136075 0.06615,0.198438 0.195574,0.391147 0.300614,0.330729 0.727604,0.330729"
       id="path23"
       sodipodi:nodetypes="cssssssscssccc" />
    <path
       style="fill:none;fill-opacity:1;stroke:#ed0000;stroke-width:1.279;stroke-dasharray:none;stroke-opacity:1"
       d="m 83.778818,17.224848 c 0.706498,-0.7065 -0.111617,0.08427 0.926041,-0.79375 0.09521,-0.08057 0.171876,-0.181146 0.264584,-0.264584 0.128,-0.115199 0.255799,-0.231976 0.396875,-0.330729 1.086884,-0.760819 0.626509,0.822634 1.653645,0.529167 0.07644,-0.02184 0.132292,-0.08819 0.198438,-0.132292 0.593667,-0.395778 0.669544,-0.694333 1.124479,-1.190625 0.126421,-0.137913 0.271026,-0.258441 0.396875,-0.396875 0.127585,-0.140344 0.196612,-0.328904 0.330729,-0.463021 0.01558,-0.01559 -0.0099,0.04643 0,0.06615 0.03555,0.07111 0.08459,0.13484 0.132292,0.198438 0.168381,0.224506 0.344307,0.720815 0.595312,0.595312 0.471821,-0.23591 0.479597,-0.787615 0.727605,-1.190625 0.09025,-0.14666 0.227406,-0.259111 0.330729,-0.396875 0.0954,-0.127196 0.144928,-0.292176 0.264583,-0.396875 0.159068,-0.139184 0.29714,-0.02468 0.463021,-0.06615 0.110014,-0.0275 0.122534,-0.198437 0.264583,-0.198437"
       id="path24" />
    <path
       style="fill:none;fill-opacity:1;stroke:#ed0000;stroke-width:1.279;stroke-dasharray:none;stroke-opacity:1"
       d="m 96.844686,3.1254501 0.02289,0.093372 c 0.02471,0.1008141 -0.0682,0.1810198 -0.01509,0.3012037 0.437457,0.9899181 0.002,4.7828733 0.52964,5.3105022 0.447925,0.447924 0.938684,0.2709042 1.455209,0.5291667 0.728572,0.3642868 -0.125556,0.139029 0.132291,0.396875 0.06972,0.069724 0.177078,0.037896 0.221176,0.1260904 0.08367,0.1673367 -0.293098,0.2412077 -0.396875,0.3968747 -0.109392,0.164088 -0.155192,0.365079 -0.264584,0.529167 -0.06919,0.103778 -0.208804,0.153025 -0.264583,0.264583 -0.130911,0.261819 0.05759,0.770381 0,1.058334 -0.133559,0.667798 -0.926042,0.879195 -0.926042,1.5875 0,0.220486 -0.109392,0.470022 0,0.661458 0.09784,0.171225 0.360061,0.16312 0.529167,0.264583 0.208685,0.125212 0.252037,0.396875 0.529167,0.396875"
       id="path25"
       sodipodi:nodetypes="csssssssssssssc" />
    <path
       style="fill:none;fill-opacity:1;stroke:#ed0000;stroke-width:1.279;stroke-dasharray:none;stroke-opacity:1"
       d="m 98.66163,9.221202 c 1.337059,-0.206765 2.70647,-0.2645833 4.10104,-0.2645833 0.0229,0 1.03244,-0.025892 1.05833,0 0.41857,0.4185647 0.63096,1.4891393 1.32292,1.7197913 0.15403,0.05134 0.77158,-0.0016 0.79375,0 0.98818,0.07058 1.92181,0.132292 2.91042,0.132292 0.0343,0 1.46802,-1.3761944 1.54359,-1.6406944 0.11371,-0.397997 -0.32958,0.045712 -0.32958,0.545792"
       id="path26"
       sodipodi:nodetypes="cscscssc" />
    <path
       style="fill:none;fill-opacity:1;stroke:#ed0000;stroke-width:1.279;stroke-dasharray:none;stroke-opacity:1"
       d="m 118.03409,6.9226343 c -0.73934,1.0804671 -0.40726,0.00744 -0.85163,0.5787761 -0.15315,0.196905 -0.38417,0.3261796 -0.52916,0.5291666 -0.16773,0.2348167 -0.27735,1.2376248 -0.1323,1.4552083 0.50079,0.7511847 0.97117,0.6286267 1.05834,1.5874997 0.0607,0.667733 0.0615,1.434264 -0.39688,1.984375 -0.10178,0.122143 -0.28445,0.152157 -0.39687,0.264584 -0.11243,0.112426 -0.14244,0.295089 -0.26459,0.396875 -0.85361,0.711345 -2.0196,0.661458 -3.0427,0.661458"
       id="path27"
       sodipodi:nodetypes="csssssscc" />
    <path
       style="fill:none;fill-opacity:1;stroke:#ed0000;stroke-width:1.279;stroke-dasharray:none;stroke-opacity:1"
       d="m 129.00603,23.930382 c -0.24253,0.04409 -0.78433,-0.241558 -0.97565,-0.289389 -0.61343,-0.153356 -1.22439,0.07694 -1.85208,-0.132291 -0.7231,-0.241032 -1.22579,-0.817673 -1.98438,-0.926042 -0.13372,-0.0191 -0.69575,-0.0217 -0.79375,0.132292 -0.35938,0.564735 -0.91098,2.041361 -1.05833,2.778125 -0.002,0.01 0.009,0.723082 -0.13229,0.79375 -0.13855,0.06927 -0.60068,-0.08164 -0.66146,-0.132292 -0.5209,-0.434078 -0.33109,-0.51362 -0.52917,-1.058333 -0.23574,-0.64829 -0.44143,-0.841082 -0.52917,-1.455209 -0.10691,-0.748394 0.0327,-1.82 -0.26458,-2.513541 -0.31628,-0.737991 -0.22305,0.166114 -0.39687,-0.529167 -0.0726,-0.290521 -0.0622,-0.391652 -0.26459,-0.661458 -0.12047,-0.160626 -1.19062,-1.901954 -1.19062,-0.661458"
       id="path28"
       sodipodi:nodetypes="csssssssssccsc" />
    <path
       style="fill:none;fill-opacity:1;stroke:#ed0000;stroke-width:1.279;stroke-dasharray:none;stroke-opacity:1"
       d="m 121.01892,25.096202 c -0.49537,1.238306 -1.45521,2.04074 -1.45521,3.439583 v 1.190625 c 0,0.0441 0.0438,0.126823 0,0.132292 -0.80473,0.100592 -1.69845,0 -2.51354,0 -0.17639,0 -0.12782,0.538104 -0.20671,0.380339 -0.0394,-0.07888 -0.84749,-0.519522 -0.96325,-0.566375"
       id="path29"
       sodipodi:nodetypes="csscscc" />
  </g>
</svg>
