<?xml version="1.0" encoding="UTF-8" standalone="no"?>
<!-- Created with Inkscape (http://www.inkscape.org/) -->

<svg
   width="130mm"
   height="54mm"
   viewBox="0 0 130 54"
   version="1.1"
   id="svg1"
   inkscape:version="1.3.2 (091e20e, 2023-11-25, custom)"
   sodipodi:docname="suspicious.svg"
   xmlns:inkscape="http://www.inkscape.org/namespaces/inkscape"
   xmlns:sodipodi="http://sodipodi.sourceforge.net/DTD/sodipodi-0.dtd"
   xmlns="http://www.w3.org/2000/svg"
   xmlns:svg="http://www.w3.org/2000/svg">
  <sodipodi:namedview
     id="namedview1"
     pagecolor="#ffffff"
     bordercolor="#000000"
     borderopacity="0.25"
     inkscape:showpageshadow="2"
     inkscape:pageopacity="0.0"
     inkscape:pagecheckerboard="0"
     inkscape:deskcolor="#d1d1d1"
     inkscape:document-units="mm"
     inkscape:zoom="0.93103385"
     inkscape:cx="262.61129"
     inkscape:cy="286.24094"
     inkscape:window-width="1920"
     inkscape:window-height="974"
     inkscape:window-x="-11"
     inkscape:window-y="-11"
     inkscape:window-maximized="1"
     inkscape:current-layer="layer1"
     showgrid="false" />
  <defs
     id="defs1" />
  <g
     inkscape:label="Layer 1"
     inkscape:groupmode="layer"
     id="layer1"
     transform="translate(-0.76579785,-1.2837021)">
    <ellipse
       style="fill:#ffffff;fill-opacity:1;stroke:#000000;stroke-width:0.782453;stroke-dasharray:none;stroke-opacity:1"
       id="path1"
       cx="23.717798"
       cy="33.748272"
       rx="19.635494"
       ry="19.48786" />
    <ellipse
       style="fill:#ffffff;fill-opacity:1;stroke:#000000;stroke-width:0.783452;stroke-dasharray:none;stroke-opacity:1"
       id="path1-0"
       cx="99.987938"
       cy="34.697815"
       rx="19.660589"
       ry="19.512766" />
    <path
       style="fill:none;stroke:#000000;stroke-width:2.07162"
       d="m 18.103522,8.0990511 c 0.313314,-0.4177524 0.538785,-0.9189582 0.939942,-1.2532564 0.613937,-0.5116141 1.523351,-0.2295831 2.193198,-0.313314 2.46869,-0.3085863 5.313831,-0.6731743 7.832852,-0.3133139 2.137353,0.305336 1.156769,0.315482 3.446453,0.939942 0.513768,0.1401181 1.07994,0.097032 1.566572,0.3133138 0.477184,0.2120822 0.799868,0.6808632 1.253258,0.9399423 0.698577,0.3991883 0.877013,0.06227 1.253256,0.6266286 0.278949,0.4184271 0.587642,1.2142695 0.939941,1.5665705 0.266266,0.266266 0.673677,0.360362 0.939944,0.626628 0.471652,0.471655 0.874338,2.408107 0.93994,2.506512 0.129541,0.194309 0.461496,0.148183 0.626629,0.313313 0.664009,0.664013 0.326824,1.637341 1.253256,2.1932 0.283197,0.169918 0.656744,0.143395 0.939941,0.313314 0.37995,0.22797 0.510079,0.832477 0.939944,0.939941 0.303958,0.076 0.632714,-0.06145 0.93994,0 1.222884,0.244578 2.467157,0.79632 3.75977,0.939943 1.323496,0.147055 2.734055,0 4.073083,0"
       id="path4" />
    <path
       style="fill:none;stroke:#000000;stroke-width:2.07162"
       d="m 75.439995,21.571556 c 0.228686,-2.33095 -0.587119,-5.021475 0.626628,-7.206223 0.215186,-0.387333 0.626628,-0.626629 0.939944,-0.939943 0.522189,-0.522189 1.080272,-1.010801 1.566569,-1.566571 0.247965,-0.283387 0.320211,-0.721073 0.626628,-0.939941 0.457658,-0.326898 1.07493,-0.353494 1.56657,-0.626629 0.865979,-0.4810988 1.042942,-0.9742751 1.879885,-1.2532555 1.119754,-0.3732518 2.293858,-0.3704955 3.446456,-0.6266286 1.0644,-0.2365327 2.060363,-0.7448917 3.133138,-0.9399423 2.333707,-0.4243096 4.895069,0.1068993 7.206224,-0.3133138 1.885464,-0.3428113 2.9822,-1.0779228 5.013023,-0.6266281 0.28837,0.064081 0.35512,0.5102663 0.62663,0.6266281 0.88502,0.3792935 1.91493,0.2975731 2.81983,0.6266285 1.14882,0.4177514 2.32287,0.7717225 3.44645,1.2532562 0.34612,0.1483329 0.57787,0.52318 0.93994,0.6266274 1.02595,0.293128 4.10906,0.1521609 5.32634,0 2.68429,-0.3355359 7.33219,-3.6351792 9.08611,-5.6396527 0.36002,-1.0800604 0.0798,-0.7064116 0.62664,-1.2532562"
       id="path5" />
    <path
       style="fill:none;stroke:#000000;stroke-width:2.07162"
       d="m 28.442885,37.237259 c 0.11715,-0.702897 0.1139,-2.269131 0.939944,-2.819825 0.358288,-0.23886 0.828507,-0.242525 1.253257,-0.313317 2.02654,-0.337757 2.193198,1.297906 2.193198,2.81983 0,0.208876 0.147696,0.478928 0,0.626625 -0.165133,0.165131 -0.417753,0.208877 -0.62663,0.313314 -0.208875,0.313313 -0.360362,0.673679 -0.626628,0.939942 -0.335957,0.33596 -1.58538,0.313316 -2.193197,0.313316 -0.313315,0 -0.840866,0.297237 -0.939944,0 -0.198155,-0.594471 0,-1.253258 0,-1.879885 z"
       id="path6" />
    <path
       style="fill:none;stroke:#000000;stroke-width:2.07162"
       d="m 111.1578,40.057085 c -1.3577,-0.104441 -2.85514,0.295659 -4.07308,-0.313314 -0.5682,-0.2841 -0.37083,-1.247221 -0.31332,-1.879885 0.28255,-3.108077 6.08512,-3.182138 6.89291,-1.566567 0.21672,0.433444 0,1.370563 0,1.87988 0,0.606347 0.26818,1.492229 -0.31332,1.879886 -1.06341,0.70895 -0.48773,0 -2.19319,0 -2.29658,0 -2.1932,1.0982 -2.1932,0"
       id="path7" />
  </g>
</svg>
