<?xml version="1.0" encoding="UTF-8" standalone="no"?>
<!-- Created with Inkscape (http://www.inkscape.org/) -->

<svg
   width="130mm"
   height="54mm"
   viewBox="0 0 130 54"
   version="1.1"
   id="svg1"
   inkscape:version="1.3.2 (091e20e, 2023-11-25, custom)"
   sodipodi:docname="derp.svg"
   xmlns:inkscape="http://www.inkscape.org/namespaces/inkscape"
   xmlns:sodipodi="http://sodipodi.sourceforge.net/DTD/sodipodi-0.dtd"
   xmlns="http://www.w3.org/2000/svg"
   xmlns:svg="http://www.w3.org/2000/svg">
  <sodipodi:namedview
     id="namedview1"
     pagecolor="#ffffff"
     bordercolor="#000000"
     borderopacity="0.25"
     inkscape:showpageshadow="2"
     inkscape:pageopacity="0.0"
     inkscape:pagecheckerboard="0"
     inkscape:deskcolor="#d1d1d1"
     inkscape:document-units="mm"
     inkscape:zoom="0.93103385"
     inkscape:cx="262.61129"
     inkscape:cy="286.24094"
     inkscape:window-width="1920"
     inkscape:window-height="974"
     inkscape:window-x="-11"
     inkscape:window-y="-11"
     inkscape:window-maximized="1"
     inkscape:current-layer="layer1"
     showgrid="false" />
  <defs
     id="defs1" />
  <g
     inkscape:label="Layer 1"
     inkscape:groupmode="layer"
     id="layer1"
     transform="translate(-0.76579785,-1.2837021)">
    <ellipse
       style="fill:#ffffff;fill-opacity:1;stroke:#000000;stroke-width:1.065;stroke-dasharray:none;stroke-opacity:1"
       id="path1"
       cx="28.024279"
       cy="28.593658"
       rx="26.725981"
       ry="26.525034" />
    <ellipse
       style="fill:#ffffff;fill-opacity:1;stroke:#000000;stroke-width:1.065;stroke-dasharray:none;stroke-opacity:1"
       id="path1-0"
       cx="103.19392"
       cy="28.341236"
       rx="26.725981"
       ry="26.525034" />
    <path
       style="fill:#000000;stroke:#000000;stroke-width:1.065"
       d="m 94.830135,30.83866 c -0.07867,-1.755685 0.574636,-3.591984 1.420911,-5.115281 0.389591,-0.701264 2.079183,-1.233867 2.841823,-0.852547 0.214913,0.107457 1.444531,1.03006 1.705091,1.420912 0.0525,0.07882 -0.067,0.217199 0,0.284182 0.14978,0.149777 0.45087,0.10794 0.56837,0.284182 0.0994,0.14913 0.0694,1.531678 0,1.705093 -0.65957,1.648916 -1.32099,1.070116 -2.273461,1.705095 -0.22293,0.148621 -0.319598,0.468857 -0.568365,0.568364 -0.675923,0.27037 -2.557639,0.02156 -2.557639,-0.852546"
       id="path2" />
    <path
       style="fill:#000000;stroke:#000000;stroke-width:1.065"
       d="m 35.151854,14.64027 c -0.473636,0.284182 -1.03034,0.461975 -1.42091,0.852546 -0.211817,0.211817 -0.150217,0.584618 -0.284184,0.852547 -0.242247,0.484498 -0.720447,0.324146 -0.852545,0.852547 -0.16233,0.649315 -0.624851,2.44467 -0.284184,3.126005 0.525695,1.05139 3.788264,0.663509 4.546917,0.284183 1.31971,-0.659856 0.493824,-3.843453 0,-4.831099 C 36.551461,15.166025 35.7376,14.991716 35.151854,14.64027 Z"
       id="path4" />
  </g>
</svg>
