<?xml version="1.0" encoding="UTF-8" standalone="no"?>
<!-- Created with Inkscape (http://www.inkscape.org/) -->

<svg
   width="130mm"
   height="54mm"
   viewBox="0 0 130 54"
   version="1.1"
   id="svg1"
   inkscape:version="1.3.2 (091e20e, 2023-11-25, custom)"
   sodipodi:docname="shocked.svg"
   xmlns:inkscape="http://www.inkscape.org/namespaces/inkscape"
   xmlns:sodipodi="http://sodipodi.sourceforge.net/DTD/sodipodi-0.dtd"
   xmlns="http://www.w3.org/2000/svg"
   xmlns:svg="http://www.w3.org/2000/svg">
  <sodipodi:namedview
     id="namedview1"
     pagecolor="#ffffff"
     bordercolor="#000000"
     borderopacity="0.25"
     inkscape:showpageshadow="2"
     inkscape:pageopacity="0.0"
     inkscape:pagecheckerboard="0"
     inkscape:deskcolor="#d1d1d1"
     inkscape:document-units="mm"
     inkscape:zoom="0.93103385"
     inkscape:cx="262.61129"
     inkscape:cy="286.24094"
     inkscape:window-width="1920"
     inkscape:window-height="974"
     inkscape:window-x="-11"
     inkscape:window-y="-11"
     inkscape:window-maximized="1"
     inkscape:current-layer="layer1" />
  <defs
     id="defs1" />
  <g
     inkscape:label="Layer 1"
     inkscape:groupmode="layer"
     id="layer1"
     transform="translate(-0.76579785,-1.2837021)">
    <ellipse
       style="fill:#ffffff;fill-opacity:1;stroke:#000000;stroke-width:1.065;stroke-dasharray:none;stroke-opacity:1"
       id="path1"
       cx="28.024279"
       cy="28.593658"
       rx="26.725981"
       ry="26.525034" />
    <ellipse
       style="fill:#ffffff;fill-opacity:1;stroke:#000000;stroke-width:1.065;stroke-dasharray:none;stroke-opacity:1"
       id="path1-0"
       cx="103.19392"
       cy="28.341236"
       rx="26.725981"
       ry="26.525034" />
    <path
       style="fill:#000000;fill-opacity:1;stroke:#000000;stroke-width:1.065;stroke-dasharray:none;stroke-opacity:1"
       d="m 26.713135,28.986594 c -0.487101,-1.713344 3.715641,-2.75291 2.841823,-0.568365 -0.185147,0.46287 -2.747137,1.515216 -2.841823,0.568365 -0.226219,-2.262195 1.989277,-3.743825 1.989277,-1.420913"
       id="path4" />
    <path
       style="fill:#000000;fill-opacity:1;stroke:#000000;stroke-width:1.065;stroke-dasharray:none;stroke-opacity:1"
       d="m 104.18328,28.794607 c -0.33492,0 -0.67983,0.08123 -1.00474,0 -0.55195,-0.137988 -0.81025,-0.61576 -1.00474,-1.004737 -0.81865,-1.637297 1.0669,-2.009473 2.41137,-2.009473 0.33491,0 0.72607,-0.185775 1.00474,0 0.12462,0.08308 0.11108,0.282072 0.20094,0.401894 0.4829,0.643858 0.64094,0.752991 0,1.607579 -0.0402,0.05359 -0.14103,-0.02996 -0.20094,0 -0.9736,0.486802 -0.75975,-0.289023 -1.40663,1.004737 z"
       id="path7" />
  </g>
</svg>
