<?xml version="1.0" encoding="UTF-8" standalone="no"?>
<!-- Created with Inkscape (http://www.inkscape.org/) -->

<svg
   width="70mm"
   height="70mm"
   viewBox="0 0 70 70"
   version="1.1"
   id="svg1"
   inkscape:version="1.3.2 (091e20e, 2023-11-25, custom)"
   sodipodi:docname="unsure.svg"
   xmlns:inkscape="http://www.inkscape.org/namespaces/inkscape"
   xmlns:sodipodi="http://sodipodi.sourceforge.net/DTD/sodipodi-0.dtd"
   xmlns="http://www.w3.org/2000/svg"
   xmlns:svg="http://www.w3.org/2000/svg">
  <sodipodi:namedview
     id="namedview1"
     pagecolor="#ffffff"
     bordercolor="#000000"
     borderopacity="0.25"
     inkscape:showpageshadow="2"
     inkscape:pageopacity="0.0"
     inkscape:pagecheckerboard="0"
     inkscape:deskcolor="#d1d1d1"
     inkscape:document-units="mm"
     inkscape:zoom="1.8620677"
     inkscape:cx="247.30572"
     inkscape:cy="140.16676"
     inkscape:window-width="1920"
     inkscape:window-height="974"
     inkscape:window-x="-11"
     inkscape:window-y="-11"
     inkscape:window-maximized="1"
     inkscape:current-layer="layer1" />
  <defs
     id="defs1" />
  <g
     inkscape:label="Layer 1"
     inkscape:groupmode="layer"
     id="layer1"
     transform="translate(-26.730885,-52.366389)">
    <path
       style="fill:none;fill-opacity:1;stroke:#000000;stroke-width:1.879;stroke-dasharray:none"
       d="m 30.709437,98.261828 c 0.0969,-0.714115 0.51157,-1.091334 0.852547,-1.705094 0.54523,-0.981413 1.468798,-2.179095 2.415549,-2.841823 0.260291,-0.182203 0.5801,-0.262805 0.852547,-0.426273 0.92333,-0.553998 0.213867,-0.276693 0.994638,-0.710456 0.871263,-0.484035 1.827407,-0.809107 2.699732,-1.278819 0.30072,-0.161928 0.54706,-0.415621 0.852547,-0.568365 0.361953,-0.180977 0.7693,-0.256691 1.136729,-0.426273 0.935454,-0.431749 1.846838,-0.960426 2.841823,-1.278821 5.35584,-1.713867 0.517097,0.01783 3.836461,-1.136729 1.550397,-0.539269 3.060949,-1.279861 4.689007,-1.563002 0.515413,-0.08964 1.049093,-0.0442 1.563003,-0.142092 0.914114,-0.174117 1.788742,-0.520666 2.699731,-0.710457 3.202072,-0.667096 6.450989,-0.945462 9.6622,-1.563002 2.550816,-0.49054 1.068213,-0.359158 3.410185,-0.710454 1.365602,-0.20484 2.749802,-0.260112 4.120645,-0.426275 0.618445,-0.07496 1.225722,-0.240824 1.847183,-0.284181 1.418254,-0.09895 2.845223,-0.03305 4.262737,-0.142092 0.435385,-0.03349 0.845137,-0.233161 1.278818,-0.284181 0.376314,-0.04427 0.75782,0 1.136729,0 0.521002,-0.09473 1.037551,-0.218501 1.563003,-0.284184 0.965057,-0.120631 2.010325,0 2.983915,0 2.415548,0 4.831098,0 7.246649,0"
       id="path6" />
  </g>
</svg>
