<?xml version="1.0" encoding="UTF-8" standalone="no"?>
<!-- Created with Inkscape (http://www.inkscape.org/) -->

<svg
   width="70mm"
   height="70mm"
   viewBox="0 0 70 70"
   version="1.1"
   id="svg1"
   inkscape:version="1.3.2 (091e20e, 2023-11-25, custom)"
   sodipodi:docname="frazzled.svg"
   xmlns:inkscape="http://www.inkscape.org/namespaces/inkscape"
   xmlns:sodipodi="http://sodipodi.sourceforge.net/DTD/sodipodi-0.dtd"
   xmlns="http://www.w3.org/2000/svg"
   xmlns:svg="http://www.w3.org/2000/svg">
  <sodipodi:namedview
     id="namedview1"
     pagecolor="#ffffff"
     bordercolor="#000000"
     borderopacity="0.25"
     inkscape:showpageshadow="2"
     inkscape:pageopacity="0.0"
     inkscape:pagecheckerboard="0"
     inkscape:deskcolor="#d1d1d1"
     inkscape:document-units="mm"
     inkscape:zoom="1.8620677"
     inkscape:cx="247.30572"
     inkscape:cy="140.16676"
     inkscape:window-width="1920"
     inkscape:window-height="974"
     inkscape:window-x="-11"
     inkscape:window-y="-11"
     inkscape:window-maximized="1"
     inkscape:current-layer="layer1" />
  <defs
     id="defs1" />
  <g
     inkscape:label="Layer 1"
     inkscape:groupmode="layer"
     id="layer1"
     transform="translate(-26.730885,-52.366389)">
    <path
       style="fill:none;stroke:#000000;stroke-width:1.879"
       d="m 29.572708,90.730998 c 0.04736,-0.426273 0.03158,-0.864407 0.142091,-1.278821 0.118358,-0.443844 0.745224,-1.355913 0.994638,-1.705094 1.318958,-1.84654 3.231363,-3.268096 5.541555,-3.268096 0.69577,0 1.667837,-0.119565 2.273458,0.284183 1.9193,1.279533 3.539075,2.97637 5.541555,4.120642 0.331546,0.189455 0.63577,0.437867 0.994638,0.568365 0.224102,0.08149 1.585643,0.05231 1.847184,0 1.13155,-0.226309 0.90027,-0.395031 1.847185,-1.278818 0.736148,-0.687073 1.58332,-1.256004 2.273459,-1.989278 0.415709,-0.44169 0.737312,-0.964435 1.136729,-1.420911 1.273372,-1.455282 2.930404,-2.269831 4.973189,-1.847185 0.604739,0.125118 1.010653,0.718462 1.563005,0.994637 0.590052,0.295029 1.243351,0.44477 1.847183,0.710457 0.581639,0.255921 1.119865,0.604948 1.705094,0.852545 0.648465,0.274352 1.372322,0.371131 1.989275,0.710457 0.352147,0.19368 0.568365,0.568365 0.852548,0.852548 1.350947,1.350947 1.497137,2.415548 3.552278,2.415548 0.426275,0 0.867568,0.11216 1.278821,0 2.072526,-0.565235 3.275417,-2.763597 4.689006,-4.120642 0.512514,-0.492014 1.150321,-0.835004 1.705094,-1.278821 0.843196,-0.674555 1.916581,-1.77559 2.983916,-2.131367 0.179731,-0.05991 0.378909,0 0.568364,0 2.376086,0 3.640172,1.787567 5.11528,3.410188 0.808143,0.888955 1.147323,1.635813 2.41555,1.847183 0.560631,0.09344 1.137267,0.02469 1.705094,0 2.239894,-0.09739 2.192224,-0.179541 3.978553,-1.278818 0.816774,-0.502632 1.635144,-1.005573 2.415548,-1.563002 0.827699,-0.591214 0.292169,-0.568365 0.994638,-0.568365"
       id="path1" />
  </g>
</svg>
