<?xml version="1.0" encoding="UTF-8" standalone="no"?>
<!-- Created with Inkscape (http://www.inkscape.org/) -->

<svg
   width="70mm"
   height="70mm"
   viewBox="0 0 70 70"
   version="1.1"
   id="svg1"
   inkscape:version="1.3.2 (091e20e, 2023-11-25, custom)"
   sodipodi:docname="moustache_3.svg"
   xmlns:inkscape="http://www.inkscape.org/namespaces/inkscape"
   xmlns:sodipodi="http://sodipodi.sourceforge.net/DTD/sodipodi-0.dtd"
   xmlns="http://www.w3.org/2000/svg"
   xmlns:svg="http://www.w3.org/2000/svg">
  <sodipodi:namedview
     id="namedview1"
     pagecolor="#ffffff"
     bordercolor="#000000"
     borderopacity="0.25"
     inkscape:showpageshadow="2"
     inkscape:pageopacity="0.0"
     inkscape:pagecheckerboard="0"
     inkscape:deskcolor="#d1d1d1"
     inkscape:document-units="mm"
     inkscape:zoom="3.7241354"
     inkscape:cx="182.45846"
     inkscape:cy="122.44453"
     inkscape:window-width="1920"
     inkscape:window-height="974"
     inkscape:window-x="-11"
     inkscape:window-y="-11"
     inkscape:window-maximized="1"
     inkscape:current-layer="layer1" />
  <defs
     id="defs1" />
  <g
     inkscape:label="Layer 1"
     inkscape:groupmode="layer"
     id="layer1"
     transform="translate(-26.730885,-52.366389)">
    <path
       style="fill:#b95b00;fill-opacity:1;stroke:#000000;stroke-width:1.879"
       d="m 44.066005,75.243063 c -1.268821,2.854847 -0.131333,0.0079 -0.710456,2.131367 -0.06711,0.246074 -0.242251,0.458865 -0.284182,0.710456 -0.475934,2.855603 0.58928,-1.03791 -0.142092,2.131367 -0.05735,0.248531 -0.24225,0.458864 -0.284182,0.710457 -0.153434,0.920601 -0.03141,2.185185 -0.142091,3.126004 -0.05644,0.479708 -0.227746,0.941202 -0.284182,1.42091 -0.09864,0.838436 0.0078,2.017459 -0.142092,2.841824 -0.51904,2.854724 -0.113253,-2.222069 -0.426273,1.847186 -0.06462,0.840118 -0.0311,1.725231 -0.142091,2.557639 -0.146623,1.099672 -0.438778,2.166607 -0.568365,3.268097 -0.04427,0.376314 0.0252,0.758658 0,1.136729 -0.02228,0.334171 -0.122424,0.660305 -0.142091,0.994638 -0.0882,1.499457 0,3.042563 0,4.546913 0,1.06018 -0.116949,2.21556 0,3.2681 0.03714,0.33428 0.318257,0.70659 0.426274,0.99464 0.189351,0.50493 0.205109,1.06538 0.426273,1.563 0.478016,1.07554 1.007511,2.1657 1.420912,3.2681 0.06857,0.18285 0.03377,0.40587 0.142091,0.56836 0.09473,0.14209 0.284182,0.18946 0.426273,0.28418 0.09473,0.18946 0.17192,0.38875 0.284183,0.56837 0.779654,1.24745 2.070498,2.57187 3.268096,3.41019 0.173527,0.12146 0.392122,0.16668 0.568364,0.28418 1.169157,0.77944 2.258776,1.6855 3.552279,2.27346 0.437765,0.19898 1.41851,0.42547 1.847185,0.56836 0.725917,0.24197 1.389029,0.66696 2.131368,0.85255 0.416089,0.10402 0.865571,0.0273 1.278818,0.14209 0.449461,0.12485 0.828093,0.44817 1.278821,0.56836 0.59494,0.15865 1.233583,-0.0511 1.847186,0 1.414018,0.11784 2.830423,0.28418 4.262734,0.28418 2.963169,0 -1.012844,-0.0911 1.989275,0.28419 0.994362,0.12429 2.118156,0 3.126007,0 1.39972,0 2.869901,0.12662 4.262734,0 0.286919,-0.0261 0.565176,-0.12157 0.852546,-0.14209 0.56692,-0.0405 1.144463,0.0934 1.705094,0 0.365331,-0.0609 0.754589,-0.22959 1.136729,-0.28418 0.687803,-0.0983 1.451475,-0.0185 2.131367,-0.1421 0.294722,-0.0536 0.561938,-0.21153 0.852548,-0.28418 0.51775,-0.12944 1.209829,-0.0985 1.705092,-0.28418 0.297497,-0.11156 0.562207,-0.29723 0.852548,-0.42627 0.202205,-0.0899 1.038093,-0.21843 1.136729,-0.28419 0.08812,-0.0587 0.0672,-0.20929 0.142092,-0.28418 0.164563,-0.16456 1.172237,-0.82885 1.42091,-0.99464 0.362961,-0.24197 1.448798,-2.21502 1.563003,-2.55764 0.04493,-0.1348 -0.02011,-0.28561 0,-0.42627 0.06175,-0.43228 0.178273,-0.85519 0.284183,-1.27882 1.017802,-4.07121 -0.58234,2.96372 0.426273,-2.41555 0.0552,-0.29442 0.230595,-0.55782 0.284181,-0.85255 0.04236,-0.233 0,-0.47363 0,-0.71045 0.04737,-0.37891 0.0672,-0.76229 0.142092,-1.13673 0.06762,-0.33812 0.227497,-0.65452 0.284181,-0.99464 0.09344,-0.56063 0,-1.13673 0,-1.70509 0,-1.27882 0,-2.55765 0,-3.83646 0,-3.972051 0.140388,-7.980975 -0.142089,-11.93566 -0.117602,-1.646412 -0.153839,-0.36054 -0.426273,-2.131369 -0.03601,-0.234064 0,-0.473636 0,-0.710454 -0.04737,-0.331547 -0.07641,-0.666232 -0.142092,-0.994638 -0.0766,-0.382987 -0.224792,-0.750699 -0.284183,-1.136729 -0.03601,-0.234066 0,-0.473639 0,-0.710457 -0.04736,-0.331546 -0.07641,-0.666228 -0.14209,-0.994637 -0.210309,-1.051536 -0.469847,-2.083364 -0.710456,-3.126005 -0.16695,-0.723442 -0.320905,-2.223177 -0.568365,-2.841824 -0.08795,-0.21988 -0.320365,-0.356547 -0.426273,-0.568364 -0.08734,-0.174669 -0.05476,-0.393696 -0.142092,-0.568365 C 85.151514,76.848401 84.737671,76.672476 84.56198,76.521883 84.358552,76.347517 84.205107,76.118012 83.993615,75.953519 83.00051,75.181104 80.784309,74.547305 79.58879,74.248425 77.413997,73.704727 78.868075,74.133726 75.752329,73.822152 72.51938,73.283327 75.540244,73.69077 72.484233,73.53797 c -2.831804,-0.141591 0.197987,-0.0778 -2.415548,-0.426274 -0.938967,-0.125195 -1.894549,0 -2.841824,0 -1.515639,0 -3.031278,0 -4.546917,0 -3.728397,0 -7.501247,-0.16927 -11.2252,0 -0.669133,0.03042 -1.321154,0.236459 -1.989276,0.284182 -0.04045,0.0029 -1.946737,0.06824 -2.131367,0.142092 -0.124383,0.04975 -0.164361,0.224271 -0.284183,0.284182 -0.553564,0.276782 -0.484147,0.06916 -0.994637,0.142091 -0.31521,-0.533839 -0.539398,0.241418 -0.710456,0.284182 -0.137849,0.03446 -0.286942,-0.02787 -0.426274,0 -0.698746,0.139749 -0.09123,0.426274 -0.852546,0.426274"
       id="path6" />
    <path
       style="fill:#ffffff;fill-opacity:1;stroke:#000000;stroke-width:1.879"
       d="m 58.133029,80.784618 c -0.81054,-0.142468 -0.866923,0.194246 -1.563005,0.426273 -0.993111,0.331038 -1.851924,0.537763 -2.841821,0.994637 -0.480803,0.221911 -1.014106,0.371451 -1.420912,0.710457 -0.131191,0.109325 -0.152991,0.316947 -0.284182,0.426272 -0.162723,0.135602 -0.432763,0.12146 -0.568365,0.284184 -0.125019,0.150022 -0.05476,0.393695 -0.142091,0.568365 -0.105909,0.211817 -0.320365,0.356547 -0.426274,0.568364 -0.248071,0.496142 -0.01121,0.488585 -0.284182,0.852546 -0.08038,0.107172 -0.241819,0.157094 -0.284182,0.284184 -0.07489,0.224665 0,0.473636 0,0.710454 0,0.13395 -0.07577,0.701005 0,0.852548 0.258931,0.517861 0.888248,1.079071 1.420911,1.278819 0.452263,0.1696 0.958265,0.145388 1.420912,0.284183 1.18535,0.355606 2.919048,0.965073 4.120643,1.13673 0.6581,0.09401 1.330079,0.05611 1.989275,0.142091 0.433006,0.05648 0.843436,0.250691 1.278821,0.284181 1.792049,0.137851 3.73698,0 5.541555,0 1.499256,0 3.048391,0.08325 4.546917,0 1.393632,-0.07742 0.99681,-0.163009 2.415548,-0.568364 0.850387,-0.242967 1.666058,-0.47624 1.847186,-1.563002 0.03115,-0.186878 -0.02349,-0.380373 0,-0.568365 0.0794,-0.635175 0.241205,-0.91979 0,-1.563002 -0.457724,-1.220597 -1.285346,-2.10325 -2.55764,-2.55764 -0.271319,-0.0969 -0.585052,-0.03509 -0.852548,-0.142092 -0.475673,-0.19027 -0.81066,-0.644475 -1.278821,-0.852548 -1.224635,-0.544283 -2.68369,-0.566582 -3.97855,-0.710454 -0.188296,-0.02093 -0.383421,0.0411 -0.568365,0 -0.248989,-0.05533 -0.458864,-0.242253 -0.710457,-0.284184 -0.467193,-0.07786 -0.947274,0 -1.42091,0 -1.063313,0 -2.076074,-0.01085 -3.126007,-0.142092 -0.140994,-0.01762 -0.288425,0.03446 -0.426273,0 -0.06498,-0.01624 -0.07855,-0.120909 -0.142092,-0.142089 -0.213135,-0.07105 -0.497318,0.07105 -0.710454,0 -0.264657,-0.08822 -0.92657,-0.656002 -0.994637,-0.710456 z"
       id="path5" />
  </g>
</svg>
