<?xml version="1.0" encoding="UTF-8" standalone="no"?>
<!-- Created with Inkscape (http://www.inkscape.org/) -->

<svg
   width="105.6419mm"
   height="24.600016mm"
   viewBox="0 0 105.6419 24.600016"
   version="1.1"
   id="svg1"
   inkscape:version="1.3.2 (091e20e, 2023-11-25, custom)"
   sodipodi:docname="moustache.svg"
   xmlns:inkscape="http://www.inkscape.org/namespaces/inkscape"
   xmlns:sodipodi="http://sodipodi.sourceforge.net/DTD/sodipodi-0.dtd"
   xmlns="http://www.w3.org/2000/svg"
   xmlns:svg="http://www.w3.org/2000/svg">
  <sodipodi:namedview
     id="namedview1"
     pagecolor="#ffffff"
     bordercolor="#000000"
     borderopacity="0.25"
     inkscape:showpageshadow="2"
     inkscape:pageopacity="0.0"
     inkscape:pagecheckerboard="0"
     inkscape:deskcolor="#d1d1d1"
     inkscape:document-units="mm"
     inkscape:zoom="0.65834035"
     inkscape:cx="295.43989"
     inkscape:cy="363.03411"
     inkscape:window-width="1920"
     inkscape:window-height="974"
     inkscape:window-x="-11"
     inkscape:window-y="-11"
     inkscape:window-maximized="1"
     inkscape:current-layer="layer1" />
  <defs
     id="defs1" />
  <g
     inkscape:label="Layer 1"
     inkscape:groupmode="layer"
     id="layer1"
     transform="translate(-26.730885,-52.366389)">
    <path
       style="fill:#5d0000;fill-opacity:1;stroke:#000000;stroke-width:1.032"
       d="m 80.378889,55.863328 c -2.209017,-3.313525 -0.737201,-2.439308 -5.224626,-2.813262 -1.029534,-0.08579 -3.045447,-0.324498 -4.018947,0 -0.645954,0.215318 -3.339642,2.133963 -4.018944,2.813262 -0.09473,0.09473 0.05991,0.282072 0,0.401894 -0.265938,0.531879 -1.098939,1.28968 -1.607577,1.607579 -2.662639,1.66415 -2.169509,1.09034 -4.018944,2.411365 -0.244491,0.174638 -2.311834,1.786618 -2.813261,2.009473 -5.951736,2.645217 0.73244,-0.484531 -4.420839,0.803789 -0.468595,0.117149 -0.741251,0.671094 -1.205685,0.803788 -1.030483,0.294426 -2.149991,-0.118351 -3.215156,0 -3.45418,0.383799 -6.696625,0.490667 -10.047361,1.607579 -1.071719,0.401894 -2.143434,0.803788 -3.215153,1.205683 -0.937755,0.133966 -1.909109,0.119345 -2.813262,0.401894 -1.545021,0.482819 -2.850467,1.616879 -4.420841,2.009473 -0.390424,0.09761 -1.04059,-0.258474 -1.205682,0.401894 -0.257506,1.030021 -0.144388,2.185136 -0.401894,3.215156 -0.03139,0.125561 -0.730864,0.474821 -0.401894,0.803788 0.419483,0.419484 2.462982,-0.820994 3.61705,-1.205682 1.845961,-0.61532 4.104113,-0.589979 6.028417,-0.803788 2.919352,-0.324374 5.98369,-0.0064 8.841676,0.401894 2.68667,0.38381 5.739234,0 8.439785,0 3.277026,0 6.830031,0.306411 10.047362,0 1.520552,-0.144815 3.00265,-0.638411 4.420838,-1.205685 0.527711,-0.211085 0.750991,-0.864664 1.205682,-1.205683 1.380938,-1.035701 4.001707,-1.404474 5.626524,-1.607576 2.412463,-0.301559 4.811829,-0.859647 7.234099,-1.205685 1.179016,-0.168431 1.832079,0.0887 2.813262,-0.401895 2.226191,-1.113096 4.294614,1.582333 6.430309,2.009474 10.022013,2.004401 -4.453049,-1.214469 4.420841,1.205682 0.786162,0.214408 1.630857,0.167741 2.411365,0.401894 0.792734,0.237821 2.034827,1.412971 2.813257,1.60758 0.3899,0.09747 0.81926,-0.110411 1.20569,0 0.57606,0.164586 1.04454,0.599045 1.60758,0.803788 1.55563,0.565687 3.6724,0.917702 5.22463,1.607576 0.038,0.01688 2.67726,1.473108 3.21515,1.60758 2.73441,0.683601 5.63269,0.121184 8.43978,0.401894 4.5444,0.45444 0.43516,0.401894 2.81326,0.401894 0.63933,0 7.4325,0.203499 7.636,0 0.21182,-0.211818 -0.59197,-0.190077 -0.80379,-0.401894 -0.34154,-0.341546 -0.42662,-0.903946 -0.80379,-1.205683 -0.3308,-0.264644 -0.84242,-0.183938 -1.20568,-0.401896 -0.86327,-0.517962 -0.93356,-1.503956 -1.60758,-2.009471 -1.63222,-1.224169 -2.62517,-0.320704 -4.01894,-2.411368 -0.51006,-0.765082 -1.65925,-0.553082 -2.41137,-0.803788 -2.70735,-0.902449 -5.10701,-1.548767 -7.63599,-2.813262 -0.61098,-0.305485 -1.44111,-0.02299 -2.00948,-0.401894 -1.4685,-0.979 0.43092,-0.58833 -0.80379,-1.205682 -0.37891,-0.189455 -0.82677,-0.212442 -1.20568,-0.401894 -0.0506,-0.02529 -1.94231,-2.310625 -2.00947,-2.411368 -0.36732,-0.550981 -0.65128,-2.896391 -1.60758,-3.215155 -0.25418,-0.08473 -0.54961,0.08473 -0.80379,0 -2.43993,-0.813311 2.21239,0.101459 -0.40189,-1.205683 -0.47929,-0.239644 -1.08772,0.129963 -1.60758,0 -0.58122,-0.145306 -1.02636,-0.658484 -1.60758,-0.803791 -1.708594,-0.427148 -4.249221,0 -6.028417,0 -1.904198,0 -11.075747,0.490543 -12.056832,0 -0.119822,-0.05991 0.09473,-0.307165 0,-0.401894 -0.189455,-0.189455 -0.539504,0.04405 -0.803789,0 -0.673795,-0.1123 -1.339649,-0.26793 -2.009473,-0.401894 z"
       id="path1" />
  </g>
</svg>
