<?xml version="1.0" encoding="UTF-8" standalone="no"?>
<!-- Created with Inkscape (http://www.inkscape.org/) -->

<svg
   width="70mm"
   height="70mm"
   viewBox="0 0 70 70"
   version="1.1"
   id="svg1"
   inkscape:version="1.3.2 (091e20e, 2023-11-25, custom)"
   sodipodi:docname="moustache_2.svg"
   xmlns:inkscape="http://www.inkscape.org/namespaces/inkscape"
   xmlns:sodipodi="http://sodipodi.sourceforge.net/DTD/sodipodi-0.dtd"
   xmlns="http://www.w3.org/2000/svg"
   xmlns:svg="http://www.w3.org/2000/svg">
  <sodipodi:namedview
     id="namedview1"
     pagecolor="#ffffff"
     bordercolor="#000000"
     borderopacity="0.25"
     inkscape:showpageshadow="2"
     inkscape:pageopacity="0.0"
     inkscape:pagecheckerboard="0"
     inkscape:deskcolor="#d1d1d1"
     inkscape:document-units="mm"
     inkscape:zoom="1.8620677"
     inkscape:cx="225.28719"
     inkscape:cy="118.41675"
     inkscape:window-width="1920"
     inkscape:window-height="974"
     inkscape:window-x="-11"
     inkscape:window-y="-11"
     inkscape:window-maximized="1"
     inkscape:current-layer="layer1" />
  <defs
     id="defs1" />
  <g
     inkscape:label="Layer 1"
     inkscape:groupmode="layer"
     id="layer1"
     transform="translate(-26.730885,-52.366389)">
    <path
       style="fill:none;stroke:#000000;stroke-width:2.6479"
       d="m 36.879544,94.290072 c 0.88714,-1.787472 2.418998,-3.019706 3.804483,-4.405192 0.533963,-0.533962 1.00582,-1.138278 1.601888,-1.601888 0.614415,-0.477878 1.379658,-0.734389 2.002361,-1.201417 0.718373,-0.53878 1.266717,-1.287175 2.002359,-1.802123 1.113069,-0.779151 5.500441,-2.390606 6.007082,-2.603069 0.743737,-0.311892 1.428367,-0.775362 2.202596,-1.001181 0.842781,-0.245811 1.740965,-0.234681 2.603065,-0.40047 2.780496,-0.534713 2.635441,-0.815482 5.606609,-1.001182 1.132463,-0.07078 2.269344,0 3.404013,0 3.524744,0 7.127648,0.08591 10.412272,1.60189 0.739744,0.341417 1.341874,0.924633 2.002362,1.40165 0.541088,0.390788 1.174595,0.688663 1.601888,1.201419 1.187226,1.424674 1.795835,3.248672 2.803302,4.805661 0.649804,1.004245 1.419443,1.954294 2.002358,3.003544 0.517442,0.931386 0.05228,1.728139 1.001182,2.202595"
       id="path3" />
    <path
       style="fill:#000000;fill-opacity:1;stroke:#000000;stroke-width:2.6479"
       d="m 59.305977,96.893141 c 0.200233,1.601884 0.422432,3.201179 0.600708,4.805659 0.08875,0.79881 0.05647,1.61208 0.200237,2.40284 0.124645,0.68559 0.350556,1.35195 0.600706,2.00236 0.139709,0.36324 0.325509,0.72599 0.600707,1.00118 0.04719,0.0472 0.153042,-0.0472 0.200238,0 0.04719,0.0472 -0.03702,0.14469 0,0.20023 0.104718,0.15708 0.29575,0.2434 0.40047,0.40047 0.09284,0.13923 0.122643,0.44553 0.200237,0.60072 0.360098,0.72019 1.235843,1.20142 2.002358,1.20142 0.134579,0 0.48254,0.059 0.600712,0 1.011621,-0.50581 0.842703,-5.37749 1.001177,-6.40757 0.05465,-0.35525 0.3059,-0.65441 0.400473,-1.00117 0.15129,-0.55473 0.208549,-1.62683 0.40047,-2.202599 0.214489,-0.643467 0.471288,-1.155021 0.600708,-1.802126 0.03927,-0.196348 -0.03927,-0.404358 0,-0.600706 0.04139,-0.206972 0.389024,-0.506316 0.200237,-0.600708 -0.340344,-0.170174 -3.189802,0 -3.804484,0 -1.23248,0 -0.592045,0.208899 -1.201414,-0.400474 -0.346156,-0.346157 -2.757094,0.318323 -3.00354,0.400474 z"
       id="path4" />
  </g>
</svg>
