<?xml version="1.0" encoding="UTF-8" standalone="no"?>
<!-- Created with Inkscape (http://www.inkscape.org/) -->

<svg
   width="70mm"
   height="70mm"
   viewBox="0 0 70 70"
   version="1.1"
   id="svg1"
   inkscape:version="1.3.2 (091e20e, 2023-11-25, custom)"
   sodipodi:docname="rough_walrus.svg"
   xmlns:inkscape="http://www.inkscape.org/namespaces/inkscape"
   xmlns:sodipodi="http://sodipodi.sourceforge.net/DTD/sodipodi-0.dtd"
   xmlns="http://www.w3.org/2000/svg"
   xmlns:svg="http://www.w3.org/2000/svg">
  <sodipodi:namedview
     id="namedview1"
     pagecolor="#ffffff"
     bordercolor="#000000"
     borderopacity="0.25"
     inkscape:showpageshadow="2"
     inkscape:pageopacity="0.0"
     inkscape:pagecheckerboard="0"
     inkscape:deskcolor="#d1d1d1"
     inkscape:document-units="mm"
     inkscape:zoom="1.8620677"
     inkscape:cx="204.34273"
     inkscape:cy="132.91676"
     inkscape:window-width="1920"
     inkscape:window-height="974"
     inkscape:window-x="-11"
     inkscape:window-y="-11"
     inkscape:window-maximized="1"
     inkscape:current-layer="layer1" />
  <defs
     id="defs1" />
  <g
     inkscape:label="Layer 1"
     inkscape:groupmode="layer"
     id="layer1"
     transform="translate(-26.730885,-52.366389)">
    <path
       style="fill:none;stroke:#000000;stroke-width:1.179"
       d="m 30.459146,91.466296 c 0.723988,-0.586921 0.963605,-1.413607 1.649882,-2.0353 0.423613,-0.383748 0.964021,-0.655265 1.393093,-1.033241 0.251307,-0.221385 0.408349,-0.549556 0.690699,-0.729679 0.126271,-0.08055 0.307869,-0.057 0.422215,-0.153731 0.130375,-0.110298 0.144239,-0.321024 0.272382,-0.433908 0.20495,-0.260593 0.597969,-0.244288 0.840533,-0.449499 1.473317,-1.246451 -0.725468,0.347188 0.974774,-0.737475 0.28235,-0.180123 0.439391,-0.508295 0.6907,-0.729677 0.266628,-0.234879 0.520693,-0.134333 0.84443,-0.307461 0.326206,-0.17445 0.49685,-0.578584 0.832737,-0.733577 0.219288,-0.101183 0.493322,-0.04764 0.70629,-0.161527 0.1772,-0.09477 0.254168,-0.316567 0.414421,-0.437805 1.110836,-0.840412 2.971534,-1.502676 4.20656,-2.105461 0.248191,-0.121139 0.449294,-0.326556 0.698495,-0.445601 0.176212,-0.08418 0.392045,-0.06554 0.564253,-0.15763 0.118133,-0.06317 0.184186,-0.194581 0.27628,-0.291873 0.186784,-0.09989 0.364139,-0.219877 0.560355,-0.299665 0.535402,-0.21771 1.168335,-0.230896 1.692758,-0.472886 0.15506,-0.07155 0.257851,-0.237342 0.418317,-0.29577 0.322269,-0.11734 1.108337,-0.144457 1.41648,-0.181016 2.62641,-0.311616 5.298485,-0.287545 7.950213,-0.360314 2.035871,-0.05587 4.071746,-0.111737 6.107617,-0.167606 1.173428,-0.0322 2.936388,-0.197993 3.980954,0.0329 0.24905,0.05505 0.46492,0.232732 0.717984,0.264588 1.836874,0.231213 0.447277,-0.28872 1.992424,0.08747 0.247825,0.06033 0.467573,0.216107 0.717986,0.264585 0.672982,0.130289 1.4615,-0.0319 2.134462,0.08357 0.251386,0.04314 0.47016,0.204252 0.717985,0.264585 2.448879,0.596213 -0.355857,-0.170385 1.424274,0.103061 0.519505,-0.04383 0.944702,0.303494 1.432068,0.387134 0.330088,0.05665 0.672315,0.03737 0.998164,0.114754 1.234387,0.293149 0.840833,0.313292 1.723941,0.663415 0.556934,0.220807 1.160011,0.308549 1.720042,0.521378 1.281548,0.487022 2.483169,1.204817 3.743652,1.745144 0.801999,0.343792 1.701819,0.603001 2.445822,1.07004 0.170192,0.106838 0.271148,0.302151 0.437805,0.414418 0.62172,0.418817 1.457829,0.549864 2.019712,1.081733 0.220249,0.208487 0.35401,0.501227 0.587639,0.694598 0.17184,0.142231 1.279405,0.756602 1.5897,0.951387 0.165851,0.104112 0.372684,0.469508 0.441704,0.556457 0.554235,0.698223 -0.635564,-1.026105 0.579843,0.410521 0.07103,0.608371 0.256012,0.380686 0.441704,0.556458 0.0344,0.03256 -0.03903,0.122026 0.0039,0.142039 0.08586,0.04002 0.198219,-0.04782 0.284077,-0.0078 0.383964,0.17899 -0.422215,0.153732 0.145936,0.138141"
       id="path3" />
    <path
       style="fill:#ffffff;stroke:#000000;stroke-width:1.179;fill-opacity:1"
       d="m 51.738926,79.221616 c -0.189454,0 -0.381487,-0.03115 -0.568364,0 -0.904017,0.150669 -2.841425,2.415053 -3.410188,3.126004 -0.202888,0.253611 -0.700005,0.547463 -0.852547,0.852548 -0.98721,1.974419 0.118889,0.06622 -0.852546,1.847184 -0.132248,0.242453 -0.331893,0.450908 -0.426274,0.710456 -0.09846,0.270756 -0.05099,0.579228 -0.142091,0.852546 -0.100474,0.301421 -0.317693,0.553953 -0.426273,0.852548 -0.08253,0.226968 -0.06572,0.481341 -0.142092,0.710457 -0.06698,0.200945 -0.2172,0.367416 -0.284182,0.568362 -0.264589,0.793768 -0.06353,0.69882 -0.142091,1.563004 -0.06981,0.767858 -0.306022,1.511867 -0.426273,2.273457 -0.22787,1.443177 -0.289873,4.13763 -0.142091,5.541555 0.03136,0.29791 0.230596,0.557826 0.284182,0.852548 0.150956,0.83026 0.03408,1.723975 0.284182,2.557635 0.371517,0.74304 0.232809,0.36288 0.426273,1.13673 0.105909,0.42364 0.106834,0.87979 0.284183,1.27883 0.09618,0.2164 0.320365,0.35654 0.426273,0.56836 0.108006,0.21601 0.01784,0.50336 0.142091,0.71045 0.121843,0.20307 0.308779,0.36275 0.426274,0.56837 0.275048,0.48133 0.299134,1.07839 0.568364,1.563 0.05143,0.0926 0.225435,0.054 0.284182,0.14209 1.023196,0.0585 0.150218,0.58462 0.284183,0.85255 0.119822,0.23964 0.407607,0.35402 0.568365,0.56837 0.169891,0.22652 0.251414,0.59025 0.426273,0.85254 0.03715,0.0557 0.142091,0.0751 0.142091,0.14209 0,0.17078 -0.27353,-0.20781 -0.426273,-0.28418 -0.08473,-0.0424 -0.192283,0.023 -0.284183,0 -0.310299,-0.0776 -0.740279,-0.29909 -0.994638,-0.42627 -0.283161,-0.14158 -0.237797,-0.50554 -0.852547,-0.71046 -0.226954,-0.0756 -0.658522,-0.13866 -0.852546,-0.28418 -0.08628,-0.17256 -0.121448,-0.31778 -0.284183,-0.42627 -0.176242,-0.1175 -0.392122,-0.16669 -0.568364,-0.28419 -0.359833,-0.23988 -0.688071,-0.68807 -0.994638,-0.99464 -0.230444,-0.23044 -0.712834,-0.43103 -0.852547,-0.71045 -0.147894,-0.29579 -0.20949,-0.59241 -0.426274,-0.85255 -0.214405,-0.25728 -0.524679,-0.43179 -0.710455,-0.71045 -0.401022,-0.60154 -0.647404,-1.23176 -0.852547,-1.84719 -0.08066,-0.24197 -0.152954,-0.49174 -0.284182,-0.71045 -0.06892,-0.11488 -0.241819,-0.1571 -0.284183,-0.28419 -0.105283,-0.31585 -0.0528,-1.10024 -0.284182,-1.562999 -0.05991,-0.119822 -0.224271,-0.16436 -0.284182,-0.284181 -0.137467,-0.274934 -0.332979,-1.474007 -0.426274,-1.847186 -0.109652,-0.438611 -0.42458,-0.847466 -0.568364,-1.278822 -0.151578,-0.454731 -0.0504,-0.820343 -0.142092,-1.278818 -0.01314,-0.06568 -0.120909,-0.07855 -0.142091,-0.142092 -0.09358,-0.280747 -0.04851,-0.713891 -0.142091,-0.994637 -0.06698,-0.200949 -0.2172,-0.367419 -0.284182,-0.568365 -0.08987,-0.2696 0.03525,-0.570558 0,-0.852548 -0.02422,-0.193776 -0.109986,-0.375735 -0.142091,-0.568362 -0.06879,-0.412724 0.082,-0.868813 0,-1.278822 -0.335162,-1.675812 -0.142091,-3.53052 -0.142091,-5.257374"
       id="path4" />
    <path
       style="fill:#fffdfd;stroke:#000000;stroke-width:1.20055;fill-opacity:1"
       d="m 74.065416,80.634852 c 0.19654,0 0.395754,-0.03113 0.58962,0 0.937825,0.150595 2.947687,2.413864 3.537721,3.124465 0.210475,0.253487 0.726183,0.547194 0.88443,0.852129 1.024129,1.973447 -0.123335,0.06619 0.884429,1.846275 0.137194,0.242333 0.344305,0.450686 0.442216,0.710106 0.102142,0.270623 0.0529,0.578943 0.147405,0.852126 0.104231,0.301273 0.329574,0.55368 0.442214,0.852129 0.08562,0.226856 0.06818,0.481104 0.147406,0.710107 0.06949,0.200846 0.225323,0.367235 0.29481,0.568082 0.274484,0.793377 0.06591,0.698476 0.147405,1.562235 0.07242,0.76748 0.317466,1.511122 0.442214,2.272338 0.236392,1.442466 0.300714,4.135593 0.147405,5.538827 -0.03253,0.297763 -0.23922,0.557549 -0.29481,0.852129 -0.156601,0.82985 -0.03535,1.72313 -0.294809,2.55638 -0.385411,0.74267 -0.241516,0.3627 -0.442215,1.13617 -0.10987,0.42343 -0.110829,0.87936 -0.294811,1.2782 -0.09978,0.21629 -0.332346,0.35636 -0.442214,0.56808 -0.112045,0.2159 -0.01851,0.50311 -0.147405,0.7101 -0.1264,0.20297 -0.320327,0.36257 -0.442216,0.56809 -0.285334,0.48109 -0.310321,1.07786 -0.589619,1.56223 -0.05335,0.0926 -0.233866,0.054 -0.29481,0.14202 -1.061461,0.0585 -0.155836,0.58433 -0.294811,0.85213 -0.124303,0.23952 -0.42285,0.35385 -0.58962,0.56809 -0.176245,0.22641 -0.260816,0.58996 -0.442215,0.85212 -0.03854,0.0557 -0.147405,0.0751 -0.147405,0.14202 0,0.1707 0.28376,-0.20771 0.442215,-0.28404 0.0879,-0.0424 0.199474,0.023 0.294811,0 0.321903,-0.0776 0.767963,-0.29894 1.031835,-0.42606 0.29375,-0.14151 0.24669,-0.50529 0.88443,-0.71011 0.235442,-0.0756 0.683149,-0.13859 0.884429,-0.28404 0.08951,-0.17247 0.12599,-0.31762 0.294811,-0.42606 0.182833,-0.11744 0.406786,-0.16661 0.589619,-0.28405 0.37329,-0.23976 0.713804,-0.68773 1.031836,-0.99415 0.239062,-0.23033 0.739492,-0.43082 0.88443,-0.7101 0.153425,-0.29564 0.217324,-0.59212 0.442215,-0.85213 0.222424,-0.25715 0.544301,-0.43158 0.737025,-0.7101 0.416019,-0.60124 0.671615,-1.23115 0.88443,-1.84628 0.08368,-0.24185 0.158674,-0.4915 0.29481,-0.7101 0.0715,-0.11482 0.250862,-0.15702 0.29481,-0.28405 0.109221,-0.3157 0.05478,-1.0997 0.29481,-1.56223 0.06215,-0.11977 0.232658,-0.16428 0.29481,-0.28405 0.142608,-0.27479 0.345431,-1.473277 0.442215,-1.846272 0.113753,-0.438395 0.440459,-0.847049 0.58962,-1.278193 0.157247,-0.454507 0.05229,-0.819939 0.147406,-1.278188 0.01363,-0.06565 0.125431,-0.07851 0.147405,-0.142022 0.09708,-0.280609 0.05032,-0.71354 0.147405,-0.994148 0.06948,-0.20085 0.225322,-0.367238 0.294809,-0.568085 0.09323,-0.269467 -0.03657,-0.570277 0,-0.852128 0.02513,-0.193681 0.114099,-0.37555 0.147405,-0.568083 0.07136,-0.41252 -0.08507,-0.868385 0,-1.278192 0.347696,-1.674987 0.147405,-5.375967 0.147405,-7.101971"
       id="path4-2"
       sodipodi:nodetypes="cssssssssssssscsssssccssssccsccssssssssssssssssssssc" />
  </g>
</svg>
