<?xml version="1.0" encoding="UTF-8" standalone="no"?>
<!-- Created with Inkscape (http://www.inkscape.org/) -->

<svg
   width="70mm"
   height="70mm"
   viewBox="0 0 70 70"
   version="1.1"
   id="svg1"
   inkscape:version="1.3.2 (091e20e, 2023-11-25, custom)"
   sodipodi:docname="rough_vampire_fangs.svg"
   xmlns:inkscape="http://www.inkscape.org/namespaces/inkscape"
   xmlns:sodipodi="http://sodipodi.sourceforge.net/DTD/sodipodi-0.dtd"
   xmlns="http://www.w3.org/2000/svg"
   xmlns:svg="http://www.w3.org/2000/svg">
  <sodipodi:namedview
     id="namedview1"
     pagecolor="#ffffff"
     bordercolor="#000000"
     borderopacity="0.25"
     inkscape:showpageshadow="2"
     inkscape:pageopacity="0.0"
     inkscape:pagecheckerboard="0"
     inkscape:deskcolor="#d1d1d1"
     inkscape:document-units="mm"
     inkscape:zoom="2.6333614"
     inkscape:cx="188.16255"
     inkscape:cy="92.087626"
     inkscape:window-width="1920"
     inkscape:window-height="974"
     inkscape:window-x="-11"
     inkscape:window-y="-11"
     inkscape:window-maximized="1"
     inkscape:current-layer="layer1" />
  <defs
     id="defs1" />
  <g
     inkscape:label="Layer 1"
     inkscape:groupmode="layer"
     id="layer1"
     transform="translate(-26.730885,-52.366389)">
    <path
       style="fill:none;stroke:#000000;stroke-width:1.179"
       d="m 30.459146,91.466296 c 0.723988,-0.586921 0.963605,-1.413607 1.649882,-2.0353 0.423613,-0.383748 0.964021,-0.655265 1.393093,-1.033241 0.251307,-0.221385 0.408349,-0.549556 0.690699,-0.729679 0.126271,-0.08055 0.307869,-0.057 0.422215,-0.153731 0.130375,-0.110298 0.144239,-0.321024 0.272382,-0.433908 0.20495,-0.260593 0.597969,-0.244288 0.840533,-0.449499 1.473317,-1.246451 -0.725468,0.347188 0.974774,-0.737475 0.28235,-0.180123 0.439391,-0.508295 0.6907,-0.729677 0.266628,-0.234879 0.520693,-0.134333 0.84443,-0.307461 0.326206,-0.17445 0.49685,-0.578584 0.832737,-0.733577 0.219288,-0.101183 0.493322,-0.04764 0.70629,-0.161527 0.1772,-0.09477 0.254168,-0.316567 0.414421,-0.437805 1.110836,-0.840412 2.971534,-1.502676 4.20656,-2.105461 0.248191,-0.121139 0.449294,-0.326556 0.698495,-0.445601 0.176212,-0.08418 0.392045,-0.06554 0.564253,-0.15763 0.118133,-0.06317 0.184186,-0.194581 0.27628,-0.291873 0.186784,-0.09989 0.364139,-0.219877 0.560355,-0.299665 0.535402,-0.21771 1.168335,-0.230896 1.692758,-0.472886 0.15506,-0.07155 0.257851,-0.237342 0.418317,-0.29577 0.322269,-0.11734 1.108337,-0.144457 1.41648,-0.181016 2.62641,-0.311616 5.298485,-0.287545 7.950213,-0.360314 2.035871,-0.05587 4.071746,-0.111737 6.107617,-0.167606 1.173428,-0.0322 2.936388,-0.197993 3.980954,0.0329 0.24905,0.05505 0.46492,0.232732 0.717984,0.264588 1.836874,0.231213 0.447277,-0.28872 1.992424,0.08747 0.247825,0.06033 0.467573,0.216107 0.717986,0.264585 0.672982,0.130289 1.4615,-0.0319 2.134462,0.08357 0.251386,0.04314 0.47016,0.204252 0.717985,0.264585 2.448879,0.596213 -0.355857,-0.170385 1.424274,0.103061 0.519505,-0.04383 0.944702,0.303494 1.432068,0.387134 0.330088,0.05665 0.672315,0.03737 0.998164,0.114754 1.234387,0.293149 0.840833,0.313292 1.723941,0.663415 0.556934,0.220807 1.160011,0.308549 1.720042,0.521378 1.281548,0.487022 2.483169,1.204817 3.743652,1.745144 0.801999,0.343792 1.701819,0.603001 2.445822,1.07004 0.170192,0.106838 0.271148,0.302151 0.437805,0.414418 0.62172,0.418817 1.457829,0.549864 2.019712,1.081733 0.220249,0.208487 0.35401,0.501227 0.587639,0.694598 0.17184,0.142231 1.279405,0.756602 1.5897,0.951387 0.165851,0.104112 0.372684,0.469508 0.441704,0.556457 0.554235,0.698223 -0.635564,-1.026105 0.579843,0.410521 0.07103,0.608371 0.256012,0.380686 0.441704,0.556458 0.0344,0.03256 -0.03903,0.122026 0.0039,0.142039 0.08586,0.04002 0.198219,-0.04782 0.284077,-0.0078 0.383964,0.17899 -0.422215,0.153732 0.145936,0.138141"
       id="path3" />
    <path
       style="fill:#fffdfd;fill-opacity:1;stroke:#000000;stroke-width:1.179"
       d="m 42.260437,82.890867 c 0.497076,0.940176 0.108374,2.330144 0.384656,3.435306 0.08123,0.324911 0.03618,0.676912 0.142091,0.994637 0.01666,0.04999 0.281532,0.697206 0.284183,0.710457 0.03715,0.185774 -0.05991,0.38863 0,0.568364 0.04236,0.12709 0.224271,0.16436 0.284182,0.284181 0.133965,0.267931 0.225435,0.558811 0.284182,0.852549 0.02787,0.139332 0,0.284181 0,0.426273 0.09473,0.189455 0.225992,0.364696 0.284183,0.568364 0.03903,0.136623 -0.06355,0.299183 0,0.426273 0.04736,0.09473 0.225434,0.05397 0.284182,0.142092 0.0633,0.09496 0.24476,1.081712 0.284182,1.278819 0.109541,0.547708 0.529059,1.018815 0.710456,1.563004 0.0099,0.02973 0.110409,0.884227 0.426273,0.568365 0.06698,-0.06698 0,-0.189455 0,-0.284184 v -1.847185 c 0,-1.150742 -0.04599,-2.281717 0.142091,-3.410186 0.06144,-0.36867 -0.06144,-0.768061 0,-1.136729 0.09562,-0.573712 0.211518,-1.123781 0.284183,-1.705094 0.02937,-0.23499 -0.05744,-0.480709 0,-0.710457 0.02568,-0.102745 0.12132,-0.180329 0.142091,-0.284181 0.04644,-0.232219 -0.08795,-0.490577 0,-0.710456 0.06342,-0.158557 0.230179,-0.264266 0.284182,-0.426273 0.214202,-0.642607 -0.164938,-1.471618 0,-2.131367 0.136132,-0.544531 0.330479,-0.824971 0.167209,-1.412292"
       id="path4"
       sodipodi:nodetypes="csscssscsssscsssscssssssc" />
    <path
       style="fill:#fffdfd;fill-opacity:1;stroke:#000000;stroke-width:1.27557"
       d="m 82.230294,82.26597 c -0.502065,1.072725 -0.185129,2.419425 -0.510095,3.51922 -0.09555,0.323333 -0.04256,0.673625 -0.167132,0.989807 -0.0196,0.04975 -0.331149,0.693821 -0.334267,0.707007 -0.0437,0.184872 0.07047,0.386743 0,0.565604 -0.04982,0.126473 -0.263796,0.163562 -0.334265,0.282801 -0.157575,0.26663 -0.265166,0.556098 -0.334266,0.84841 -0.03278,0.138655 0,0.282801 0,0.424203 -0.111425,0.188535 -0.26582,0.362925 -0.334267,0.565604 -0.04591,0.135959 0.07475,0.29773 0,0.424203 -0.05571,0.09427 -0.265163,0.05371 -0.334265,0.141402 -0.07446,0.0945 -0.287896,1.076459 -0.334265,1.272609 -0.128847,0.545048 -0.622299,1.013868 -0.835665,1.555414 -0.01165,0.02959 -0.129867,0.879934 -0.501398,0.565605 -0.07878,-0.06665 0,-0.188535 0,-0.282804 V 92.00684 c 0,-1.145154 0.0541,-2.270637 -0.167133,-3.393627 -0.07227,-0.366879 0.07227,-0.764331 0,-1.131209 -0.112472,-0.570926 -0.248795,-1.118324 -0.334267,-1.696814 -0.03455,-0.233849 0.06756,-0.478375 0,-0.707007 -0.03021,-0.102246 -0.142701,-0.179453 -0.167132,-0.282801 -0.05463,-0.231091 0.10345,-0.488195 0,-0.707006 -0.0746,-0.157787 -0.270745,-0.262983 -0.334266,-0.424203 -0.251952,-0.639487 -0.04041,-1.437602 0,-2.121018 0.01571,-0.265584 0.0244,-0.283205 0.102891,-0.786161"
       id="path4-0"
       sodipodi:nodetypes="csscssscssssssssssssssssc" />
    <path
       style="fill:#d90000;fill-opacity:1;stroke:#000000;stroke-width:0.388001;stroke-dasharray:none"
       d="m 43.509978,88.178952 c 0.1781,0.01474 -0.04937,0.0222 0.125592,0.0063 0.456649,0 -0.08454,0.0122 0.251184,-0.02511 0.08072,-0.009 0.195722,0.01791 0.276303,0 0.04401,-0.0098 0.08158,-0.04046 0.125592,-0.05024 0.03269,-0.0073 0.06744,0.0055 0.100473,0 0.01847,-0.0031 0.03188,-0.02146 0.05024,-0.02511 0.13256,-0.02651 0.316123,-0.01 0.452131,-0.02511 0.142125,-0.0158 0.06382,-0.02965 0.200948,-0.07536 0.07149,-0.02384 0.151171,0.0083 0.226065,0 0.01861,-0.0021 0.03188,-0.02146 0.05024,-0.02511 0.03328,-0.0067 -0.106798,0.01256 -0.06908,0.01256 0.127289,0 0.164708,-0.0051 0.295142,-0.03767 0.01242,-0.0031 -0.124412,0 -0.194668,0 0.138707,2.762025 0.247812,4.726012 0.119307,6.781927 -0.877431,-2.073873 -1.44437,-4.061627 -2.009473,-6.537065 z"
       id="path5"
       sodipodi:nodetypes="cccccccccccssccc" />
    <path
       style="fill:#d90000;fill-opacity:1;stroke:#000000;stroke-width:0.379568;stroke-dasharray:none"
       d="m 80.347362,88.138512 c -0.170267,0.01476 0.0472,0.02222 -0.120068,0.0063 -0.436566,0 0.08082,0.01221 -0.240138,-0.02514 -0.07717,-0.009 -0.187114,0.01793 -0.264151,0 -0.04208,-0.0098 -0.07799,-0.0405 -0.120069,-0.05029 -0.03125,-0.0073 -0.06447,0.0055 -0.09605,0 -0.01766,-0.0031 -0.03048,-0.02148 -0.04803,-0.02513 -0.126731,-0.02654 -0.302221,-0.01001 -0.432247,-0.02514 -0.135875,-0.01582 -0.06101,-0.02968 -0.192111,-0.07544 -0.06835,-0.02386 -0.144522,0.0083 -0.216123,0 -0.01779,-0.0021 -0.03048,-0.02148 -0.04803,-0.02514 -0.03182,-0.0067 0.102101,0.01257 0.06604,0.01257 -0.121691,0 -0.157464,-0.0051 -0.282162,-0.03771 -0.01187,-0.0031 0.11894,0 0.186107,0 -0.132607,2.764864 -0.236914,4.73087 -0.11406,6.788894 0.838842,-2.076 1.380848,-4.065798 1.921098,-6.543781 z"
       id="path5-6"
       sodipodi:nodetypes="cccccccccccssccc" />
  </g>
</svg>
