<?xml version="1.0" encoding="UTF-8" standalone="no"?>
<!-- Created with Inkscape (http://www.inkscape.org/) -->

<svg
   width="70mm"
   height="70mm"
   viewBox="0 0 70 70"
   version="1.1"
   id="svg1"
   inkscape:version="1.3.2 (091e20e, 2023-11-25, custom)"
   sodipodi:docname="toothy_shocked.svg"
   xmlns:inkscape="http://www.inkscape.org/namespaces/inkscape"
   xmlns:sodipodi="http://sodipodi.sourceforge.net/DTD/sodipodi-0.dtd"
   xmlns="http://www.w3.org/2000/svg"
   xmlns:svg="http://www.w3.org/2000/svg">
  <sodipodi:namedview
     id="namedview1"
     pagecolor="#ffffff"
     bordercolor="#000000"
     borderopacity="0.25"
     inkscape:showpageshadow="2"
     inkscape:pageopacity="0.0"
     inkscape:pagecheckerboard="0"
     inkscape:deskcolor="#d1d1d1"
     inkscape:document-units="mm"
     inkscape:zoom="1.3166807"
     inkscape:cx="89.239555"
     inkscape:cy="56.581675"
     inkscape:window-width="1920"
     inkscape:window-height="974"
     inkscape:window-x="-11"
     inkscape:window-y="-11"
     inkscape:window-maximized="1"
     inkscape:current-layer="layer1" />
  <defs
     id="defs1" />
  <g
     inkscape:label="Layer 1"
     inkscape:groupmode="layer"
     id="layer1"
     transform="translate(-26.730885,-52.366389)">
    <path
       style="fill:#ffffff;fill-opacity:1;stroke:#000000;stroke-width:1.099"
       id="path1"
       sodipodi:type="arc"
       sodipodi:cx="-61.863857"
       sodipodi:cy="-103.00707"
       sodipodi:rx="33.893803"
       sodipodi:ry="33.728001"
       sodipodi:start="0"
       sodipodi:end="3.1415927"
       sodipodi:arc-type="slice"
       d="m -27.970055,-103.00707 a 33.893803,33.728001 0 0 1 -16.946901,29.209303 33.893803,33.728001 0 0 1 -33.893803,-1e-6 33.893803,33.728001 0 0 1 -16.946901,-29.209302 h 33.893803 z"
       transform="scale(-1)" />
    <path
       style="fill:#ffffff;fill-opacity:1;stroke:#000000;stroke-width:1.032"
       d="m 42.360911,102.69104 c 0.628288,-1.57072 0.330206,-1.10848 1.136729,-2.27346 0.236819,-0.33155 0.473637,-0.663094 0.710456,-0.994643 0.09473,-0.284181 0.123359,-0.599824 0.284182,-0.852546 0.179806,-0.282554 0.52468,-0.431792 0.710456,-0.710457 0.21665,-0.324974 0.139128,-0.774091 0.284182,-1.136729 0.118,-0.295 0.314713,-0.555051 0.426273,-0.852546 0.01286,-0.03429 -0.05007,-0.518292 0,-0.568364 0.174775,-0.174776 3.173257,0.05101 3.836461,0 0.194711,-0.01498 0.376871,-0.103794 0.568365,-0.142092 0.09289,-0.01857 0.2172,0.06698 0.284182,0 0.368909,-0.368909 -0.128798,-0.284181 0.426274,-0.284181 0.04736,0 0.1086,0.03349 0.142091,0 0.03349,-0.03349 0,-0.189455 0,-0.142092 0,1.354323 -0.06136,2.783731 -0.284183,4.120642 -0.117466,0.704797 -0.466331,1.417138 -0.568364,2.131368 -0.02679,0.18756 0.05205,0.3862 0,0.56837 -0.310455,1.08659 -0.284182,0.0833 -0.284182,0.56836"
       id="path2" />
    <path
       style="fill:#ffffff;fill-opacity:1;stroke:#000000;stroke-width:1.032"
       d="m 70.336815,102.30721 c -0.191623,-1.69429 -0.383247,-3.388572 -0.574871,-5.082866 -0.0063,-0.05579 -0.22722,-1.165923 -0.143718,-1.270719 0.08733,-0.109609 2.08793,-0.184457 2.541439,-0.287437 0.42583,-0.09669 0.810756,-0.33962 1.23878,-0.426098 0.649958,-0.131317 1.317783,-0.149041 1.976675,-0.223562 0.318113,-0.03598 0.829642,-0.239364 0.831176,-0.237004 0.26992,0.415358 0.386746,2.155154 0.460566,2.807852 0.180978,1.600164 0.361957,3.200324 0.542934,4.800484"
       id="path3" />
    <path
       style="fill:#ffffff;fill-opacity:1;stroke:#000000;stroke-width:1.032"
       d="m 44.634369,74.81679 c 0.521001,1.799821 1.006386,3.610336 1.563003,5.399463 0.107155,0.344427 0.322624,0.649139 0.426273,0.994638 0.04083,0.136099 -0.04493,0.291475 0,0.426272 0.02996,0.08987 0.241819,0.08473 0.284182,0 0.04236,-0.08472 -0.04874,-0.202954 0,-0.284181 0.597936,-0.996558 0.313339,0.196715 0.710456,-0.994637 0.755569,-2.266706 0.426274,-5.729935 0.426274,-8.241287"
       id="path4" />
    <path
       style="fill:#ffffff;fill-opacity:1;stroke:#000000;stroke-width:1.032"
       d="m 72.05796,71.406602 c -0.936602,1.404901 -0.335309,0.340957 -0.710457,1.27882 -0.16057,0.401426 -0.254997,1.078362 -0.426273,1.420912 -0.05991,0.119822 -0.234428,0.159799 -0.284181,0.284182 -0.05277,0.131929 0.02787,0.286942 0,0.426274 -0.195762,0.978808 -0.781473,1.776278 -0.568364,2.841823 0.02627,0.131363 0.20987,0.172716 0.284181,0.284182 0.08308,0.124622 0.03618,0.320365 0.142091,0.426273 0.07489,0.07489 0.209294,0.0672 0.284181,0.142092 0.03349,0.03349 -0.02117,0.09973 0,0.142091 0.301287,0.602572 -0.143957,0.710456 0.568365,0.710456 0.09473,0 0.208402,0.05683 0.284184,0 0.41837,-0.313777 0.36545,-0.872993 0.568364,-1.278821 0.152744,-0.305487 0.441519,-0.535431 0.568365,-0.852547 0.07036,-0.175904 -0.02679,-0.380814 0,-0.568364 0.124116,-0.868825 0.09015,-0.03821 0.426273,-0.710456 0.17467,-0.349338 0.109514,-0.787392 0.284184,-1.136729 0.05991,-0.119822 0.224271,-0.164361 0.284181,-0.284182 0.153789,-0.307578 0.01019,-0.862741 0.284181,-1.13673 0.03349,-0.03349 0.108601,0.03349 0.142092,0 0.03349,-0.03349 -0.03941,-0.115818 0,-0.142091 0.124624,-0.08308 0.301651,-0.05901 0.426272,-0.142091 0.106649,-0.0711 0.03196,-0.284182 0.284184,-0.284182"
       id="path5" />
  </g>
</svg>
