<?xml version="1.0" encoding="UTF-8" standalone="no"?>
<!-- Created with Inkscape (http://www.inkscape.org/) -->

<svg
   width="70mm"
   height="70mm"
   viewBox="0 0 70 70"
   version="1.1"
   id="svg1"
   inkscape:version="1.3.2 (091e20e, 2023-11-25, custom)"
   sodipodi:docname="open_toothy_smile.svg"
   xmlns:inkscape="http://www.inkscape.org/namespaces/inkscape"
   xmlns:sodipodi="http://sodipodi.sourceforge.net/DTD/sodipodi-0.dtd"
   xmlns="http://www.w3.org/2000/svg"
   xmlns:svg="http://www.w3.org/2000/svg">
  <sodipodi:namedview
     id="namedview1"
     pagecolor="#ffffff"
     bordercolor="#000000"
     borderopacity="0.25"
     inkscape:showpageshadow="2"
     inkscape:pageopacity="0.0"
     inkscape:pagecheckerboard="0"
     inkscape:deskcolor="#d1d1d1"
     inkscape:document-units="mm"
     inkscape:zoom="1.3166807"
     inkscape:cx="88.48007"
     inkscape:cy="56.581675"
     inkscape:window-width="1920"
     inkscape:window-height="974"
     inkscape:window-x="-11"
     inkscape:window-y="-11"
     inkscape:window-maximized="1"
     inkscape:current-layer="layer1" />
  <defs
     id="defs1" />
  <g
     inkscape:label="Layer 1"
     inkscape:groupmode="layer"
     id="layer1"
     transform="translate(-26.730885,-52.366389)">
    <path
       style="fill:#ffffff;fill-opacity:1;stroke:#000000;stroke-width:1.099"
       id="path1"
       sodipodi:type="arc"
       sodipodi:cx="62.166897"
       sodipodi:cy="80.943207"
       sodipodi:rx="33.893803"
       sodipodi:ry="33.728001"
       sodipodi:start="0"
       sodipodi:end="3.1415927"
       sodipodi:arc-type="slice"
       d="m 96.060699,80.943207 a 33.893803,33.728001 0 0 1 -16.946901,29.209303 33.893803,33.728001 0 0 1 -33.893803,0 33.893803,33.728001 0 0 1 -16.946901,-29.209303 h 33.893803 z"
       transform="rotate(0.17735011)" />
    <path
       style="fill:#ffffff;fill-opacity:1;stroke:#000000;stroke-width:1.032"
       d="m 43.588357,81.644104 c -0.234399,0.413204 -0.06918,0.956025 -0.267244,1.381011 -0.124118,0.266315 -1.940112,2.62713 -1.597281,2.965707 0.497,0.490832 1.155767,0.302788 1.737407,0.540887 0.138614,0.05674 0.217784,0.2169 0.356396,0.273643 0.185969,0.07613 0.422864,0.0058 0.591862,0.114533 0.159333,0.102498 0.167949,0.355553 0.318219,0.47093 2.065229,1.585691 -0.09878,-0.27442 1.145545,0.426355 0.08254,0.04649 0.07657,0.188981 0.15911,0.235464 0.175089,0.09861 0.432477,-0.0078 0.591862,0.114534 0.380941,0.292488 1.780993,0.886957 2.208336,0.222669 0.222712,-0.346198 0.389009,-2.405786 0.337203,-2.8002 -0.01234,-0.09392 -0.146774,-0.141543 -0.15911,-0.235465 -0.08275,-0.630039 0.136821,-0.178198 0.114534,-0.591861 -0.05543,-1.028814 0.178162,-1.978348 0.375379,-2.997486"
       id="path6" />
    <path
       style="fill:#ffffff;fill-opacity:1;stroke:#000000;stroke-width:1.032"
       d="m 72.875073,81.778359 c -3.047294,3.656749 0.288978,-0.533944 -1.406631,2.009472 -0.21454,0.321808 -0.912164,1.23729 -1.004737,1.607578 -0.02514,0.100569 -0.09236,1.469034 0,1.607577 0.166164,0.249245 0.554546,0.235732 0.803788,0.401895 0.157637,0.10509 0.232442,0.317168 0.401895,0.401894 0.05991,0.02996 0.153585,-0.04736 0.200948,0 0.105907,0.105909 0.07632,0.318813 0.200946,0.401895 0.111466,0.07431 0.274804,-0.04236 0.401894,0 0.229116,0.07637 0.378608,0.3122 0.602842,0.401894 0.164693,0.06588 0.812935,0.105047 1.004737,0.200948 0.08473,0.04236 0.109048,0.177972 0.200946,0.200946 0.770051,0.192514 0.363029,-0.160427 1.004737,0 0.145306,0.03633 0.254156,0.176324 0.401894,0.200949 0.183004,0.0305 2.428086,0.184229 2.612316,0 0.04736,-0.04737 -0.04019,-0.147363 0,-0.200949 0.170508,-0.227346 0.490894,-0.341636 0.602839,-0.602841 0.185587,-0.433033 0,-5.465681 0,-6.430311"
       id="path8" />
  </g>
</svg>
